<svg xmlns="http://www.w3.org/2000/svg" viewBox="0 0 317.95 344.07"><title>logo-face</title><path d="M146.66,78.47a6.08,6.08,0,0,0-4.52,1.94,5.92,5.92,0,0,0-1.88,4.52,6.36,6.36,0,0,0,10.93,4.53,6.25,6.25,0,0,0,1.87-4.53,6.51,6.51,0,0,0-6.4-6.46Z" fill="#edc1a3"/><path d="M167.28,110.14a4.22,4.22,0,0,0-6.07,0,4.27,4.27,0,0,0,0,6.14,3.86,3.86,0,0,0,3,1.3,4,4,0,0,0,3-1.3,4.27,4.27,0,0,0,0-6.14Z" fill="#edc1a3"/><path d="M125.72,129.15a6.66,6.66,0,0,0,4.78,1.94,6.56,6.56,0,0,0,4.79-1.94,6.48,6.48,0,0,0,2-4.79,6.34,6.34,0,0,0-2-4.72,6.55,6.55,0,0,0-4.79-1.93,6.65,6.65,0,0,0-4.78,1.93,6.31,6.31,0,0,0-2,4.72A6.44,6.44,0,0,0,125.72,129.15Z" fill="#edc1a3"/><path d="M112.92,130.83a4.47,4.47,0,0,0,3.69,2.06,4.6,4.6,0,0,0,3.75-2.06,8.87,8.87,0,0,0,0-10,4.61,4.61,0,0,0-3.75-2.07,4.48,4.48,0,0,0-3.69,2.07,8.6,8.6,0,0,0,0,10Z" fill="#edc1a3"/><path d="M165.34,125.14a5.07,5.07,0,0,0-5-5.11,5.3,5.3,0,0,0-5.11,5.11,4.75,4.75,0,0,0,1.55,3.55,4.83,4.83,0,0,0,3.56,1.49,4.94,4.94,0,0,0,3.55-1.49A4.86,4.86,0,0,0,165.34,125.14Z" fill="#edc1a3"/><path d="M168.45,129a5,5,0,0,0,3.74,1.61,5.41,5.41,0,0,0,5.31-5.3,5.08,5.08,0,0,0-1.56-3.75,5.32,5.32,0,0,0-3.75-1.55,5.42,5.42,0,0,0-3.74,1.55,5.36,5.36,0,0,0-1.56,3.75A5.19,5.19,0,0,0,168.45,129Z" fill="#edc1a3"/><path d="M141.17,133.22a6.39,6.39,0,0,0,4.72,1.94,6.25,6.25,0,0,0,4.65-1.94,6.66,6.66,0,0,0,1.94-4.78,6.37,6.37,0,0,0-1.94-4.66,6.25,6.25,0,0,0-4.65-1.94,6.62,6.62,0,0,0-6.66,6.6A6.56,6.56,0,0,0,141.17,133.22Z" fill="#edc1a3"/><path d="M118,143a5.47,5.47,0,0,0,3.88,1.55,5.21,5.21,0,0,0,3.82-1.55,5.13,5.13,0,0,0,1.61-3.81,5.5,5.5,0,0,0-5.43-5.49,5.57,5.57,0,0,0-3.88,1.61,5.21,5.21,0,0,0-1.55,3.88A5,5,0,0,0,118,143Z" fill="#edc1a3"/><path d="M131.28,143.69a5.52,5.52,0,0,0,4,1.68,5.89,5.89,0,0,0,4.13-10,5.52,5.52,0,0,0-4.13-1.68,5.26,5.26,0,0,0-4,1.68,5.76,5.76,0,0,0,0,8.27Z" fill="#edc1a3"/><path d="M167.8,139a5.06,5.06,0,0,0-1.62-3.88,4.93,4.93,0,0,0-3.81-1.62,5.1,5.1,0,0,0-3.75,1.62A5.32,5.32,0,0,0,157,139a5.54,5.54,0,0,0,5.37,5.36A5.54,5.54,0,0,0,167.8,139Z" fill="#edc1a3"/><path d="M145.5,137.29a5.78,5.78,0,0,0,0,8.4,5.8,5.8,0,0,0,4.2,1.75,6.14,6.14,0,0,0,4.2-1.75,5.91,5.91,0,0,0,0-8.4,5.87,5.87,0,0,0-4.2-1.74A5.57,5.57,0,0,0,145.5,137.29Z" fill="#edc1a3"/><path d="M120,148.28a6.87,6.87,0,0,0-5-2.07,7.14,7.14,0,0,0-5,12.09,6.72,6.72,0,0,0,5,2.07,6.65,6.65,0,0,0,5-2.07,7.1,7.1,0,0,0,0-10Z" fill="#edc1a3"/><path d="M137.74,159.07a6.41,6.41,0,0,0,4.72,2,6.74,6.74,0,0,0,6.72-6.66,6.6,6.6,0,0,0-1.94-4.78,6.32,6.32,0,0,0-4.78-2,6.41,6.41,0,0,0-4.72,2,6.64,6.64,0,0,0-1.94,4.78A6.35,6.35,0,0,0,137.74,159.07Z" fill="#edc1a3"/><path d="M152.61,156a7.75,7.75,0,0,0,4.91,1.49,7.56,7.56,0,0,0,4.85-1.49,4.35,4.35,0,0,0,2.07-3.61,4.58,4.58,0,0,0-2.07-3.69,8,8,0,0,0-4.85-1.48,8.19,8.19,0,0,0-4.91,1.48,4.43,4.43,0,0,0-2.07,3.69A4.22,4.22,0,0,0,152.61,156Z" fill="#edc1a3"/><path d="M125.79,157.72a4.58,4.58,0,0,0,3.55,1.48,4.84,4.84,0,0,0,3.62-1.48,5.1,5.1,0,0,0,1.49-3.62,5.25,5.25,0,0,0-1.49-3.69,5.07,5.07,0,0,0-3.62-1.48,4.8,4.8,0,0,0-3.55,1.48,5,5,0,0,0-1.56,3.69A4.89,4.89,0,0,0,125.79,157.72Z" fill="#edc1a3"/><path d="M140.78,170.26a7.77,7.77,0,0,0-1.42-4.59,4.34,4.34,0,0,0-3.43-1.88,4.16,4.16,0,0,0-3.42,1.88,8,8,0,0,0,0,9.11,4.16,4.16,0,0,0,3.42,1.88,4.34,4.34,0,0,0,3.43-1.88A7.71,7.71,0,0,0,140.78,170.26Z" fill="#edc1a3"/><path d="M198.63,205.42a5.2,5.2,0,0,0-5.3,5.36,5.37,5.37,0,0,0,1.49,3.75,5.16,5.16,0,0,0,3.81,1.55,4.83,4.83,0,0,0,3.75-1.55,5,5,0,0,0,1.62-3.75,5.41,5.41,0,0,0-5.37-5.36Z" fill="#9e8680"/><path d="M86,229.59a3.65,3.65,0,0,0,3,1.56,3.61,3.61,0,0,0,3-1.56,6.17,6.17,0,0,0,1.23-3.87A5.92,5.92,0,0,0,92,221.84a3.67,3.67,0,0,0-3-1.62,3.71,3.71,0,0,0-3,1.62,5.91,5.91,0,0,0-1.22,3.88A6.17,6.17,0,0,0,86,229.59Z" fill="#d64a08"/><path d="M99,230.37a5.73,5.73,0,0,0,4.27,1.81,6.06,6.06,0,0,0,6.14-6.14,5.82,5.82,0,0,0-1.74-4.27,5.9,5.9,0,0,0-4.4-1.81A5.73,5.73,0,0,0,99,221.77a5.65,5.65,0,0,0-1.8,4.27A5.78,5.78,0,0,0,99,230.37Z" fill="#d64a08"/><path d="M271.87,235.73a5.74,5.74,0,0,0-4.21-1.68,5.85,5.85,0,0,0-4.26,1.68,5.27,5.27,0,0,0-1.75,4,5.37,5.37,0,0,0,1.75,4,6.1,6.1,0,0,0,4.26,1.68,6,6,0,0,0,4.21-1.68,5.43,5.43,0,0,0,1.81-4A5.33,5.33,0,0,0,271.87,235.73Z" fill="#e37d4d"/><path d="M113.5,231.85a3.87,3.87,0,0,0-3.29,2,8.82,8.82,0,0,0,0,9.63,3.86,3.86,0,0,0,3.29,2,4,4,0,0,0,3.36-2,9.57,9.57,0,0,0,0-9.63A4,4,0,0,0,113.5,231.85Z" fill="#d64a08"/><path d="M245.49,239.35a5.48,5.48,0,0,0-1.74-4.07,5.69,5.69,0,0,0-8.21,0,5.81,5.81,0,0,0,8.21,8.21A5.53,5.53,0,0,0,245.49,239.35Z" fill="#d64a08"/><path d="M250,235.22a5.07,5.07,0,0,0,0,7.3,4.72,4.72,0,0,0,3.49,1.42,5,5,0,0,0,3.62-1.42,5.22,5.22,0,0,0,0-7.3,5,5,0,0,0-3.62-1.42A4.72,4.72,0,0,0,250,235.22Z" fill="#d64a08"/><path d="M90.36,236.64a7.79,7.79,0,0,0-8.59,0,3.8,3.8,0,0,0-1.75,3.1,3.92,3.92,0,0,0,1.75,3.17,7.79,7.79,0,0,0,8.59,0,3.92,3.92,0,0,0,1.75-3.17A3.8,3.8,0,0,0,90.36,236.64Z" fill="#d64a08"/><path d="M96.83,236.44a5.32,5.32,0,0,0,0,7.24,5.22,5.22,0,0,0,7.3,0,5.32,5.32,0,0,0,0-7.24,5.24,5.24,0,0,0-7.3,0Z" fill="#d64a08"/><path d="M143,236.32a5.46,5.46,0,0,0-4.07-1.75,5.35,5.35,0,0,0-4.07,1.75,5.56,5.56,0,0,0-1.75,4.2,6,6,0,0,0,5.82,5.81,5.48,5.48,0,0,0,4.07-1.74,5.3,5.3,0,0,0,1.68-4.07A5.47,5.47,0,0,0,143,236.32Z" fill="#9e8680"/><path d="M54.17,235.35a4.57,4.57,0,0,0-3.75,2.19,9.34,9.34,0,0,0-1.49,5.3,9.53,9.53,0,0,0,1.49,5.37,4.24,4.24,0,0,0,7.43,0,9.53,9.53,0,0,0,1.49-5.37,9.34,9.34,0,0,0-1.49-5.3A4.55,4.55,0,0,0,54.17,235.35Z" fill="#d64a08"/><path d="M65.93,238a4.45,4.45,0,0,0-1.36,3.23,4.36,4.36,0,0,0,1.36,3.23,4.73,4.73,0,0,0,3.3,1.36,4.59,4.59,0,0,0,3.29-1.36,4.54,4.54,0,0,0,1.3-3.23,4.65,4.65,0,0,0-1.3-3.23,4.32,4.32,0,0,0-3.29-1.36A4.45,4.45,0,0,0,65.93,238Z" fill="#d64a08"/><path d="M258.42,256.81a6.06,6.06,0,0,0,4.4,1.81,6.18,6.18,0,0,0,6.14-6.14,5.94,5.94,0,0,0-1.81-4.34,6.14,6.14,0,0,0-4.33-1.81,6.06,6.06,0,0,0-4.4,1.81,5.68,5.68,0,0,0-1.81,4.34A5.87,5.87,0,0,0,258.42,256.81Z" fill="#dc6028"/><path d="M85.58,256.55a5.71,5.71,0,0,0,8,0,5.61,5.61,0,0,0,1.62-4,5.4,5.4,0,0,0-1.62-3.88,5.71,5.71,0,0,0-8,0,5.22,5.22,0,0,0-1.68,3.88A5.43,5.43,0,0,0,85.58,256.55Z" fill="#d64a08"/><path d="M101.42,256.16a4.75,4.75,0,0,0,3.42,1.49,4.66,4.66,0,0,0,3.43-1.49,4.9,4.9,0,0,0,1.42-3.49,5,5,0,0,0-1.42-3.43,4.87,4.87,0,0,0-3.43-1.42,5,5,0,0,0-3.42,1.42,4.89,4.89,0,0,0-1.36,3.43A4.81,4.81,0,0,0,101.42,256.16Z" fill="#d64a08"/><path d="M245.56,257.71a3.77,3.77,0,0,0,6.59,0,8.53,8.53,0,0,0,0-9.24,3.83,3.83,0,0,0-6.59,0,8.53,8.53,0,0,0,0,9.24Z" fill="#d64a08"/><path d="M59.79,258.1A5.8,5.8,0,0,0,64.12,260a6.09,6.09,0,0,0,4.46-1.87,6.24,6.24,0,0,0,0-8.79,6.1,6.1,0,0,0-4.46-1.88,5.81,5.81,0,0,0-4.33,1.88,6.24,6.24,0,0,0,0,8.79Z" fill="#d64a08"/><path d="M232.57,260.1a4.58,4.58,0,0,0,3.74,2.13,4.5,4.5,0,0,0,3.75-2.13,8.09,8.09,0,0,0,1.62-5.17,7.74,7.74,0,0,0-1.62-5,4.34,4.34,0,0,0-3.75-2.13,4.41,4.41,0,0,0-3.74,2.13,7.7,7.7,0,0,0-1.55,5A8,8,0,0,0,232.57,260.1Z" fill="#d64a08"/><path d="M73.23,259.07a4.09,4.09,0,0,0,6.79,0,6.4,6.4,0,0,0,1.36-4.2A6.8,6.8,0,0,0,80,250.66a4.27,4.27,0,0,0-6.79,0,6.44,6.44,0,0,0-1.35,4.21A6.09,6.09,0,0,0,73.23,259.07Z" fill="#d64a08"/><path d="M62.89,263.66a6.31,6.31,0,0,0-4.65-1.94,6.08,6.08,0,0,0-4.59,1.94,6.7,6.7,0,0,0,0,9.43A6.08,6.08,0,0,0,58.24,275a6.31,6.31,0,0,0,4.65-1.94,6.85,6.85,0,0,0,0-9.43Z" fill="#df713d"/><path d="M80.28,267.6a6,6,0,0,0,1.81,4.33,5.86,5.86,0,0,0,8.47,0,6.17,6.17,0,0,0,0-8.59,6,6,0,0,0-8.47,0A6.06,6.06,0,0,0,80.28,267.6Z" fill="#d64a08"/><path d="M96.83,271.61a5.41,5.41,0,0,0,4.07,1.68,5.3,5.3,0,0,0,4-1.68,5.78,5.78,0,0,0,0-8.15,5.3,5.3,0,0,0-4-1.68,5.41,5.41,0,0,0-4.07,1.68,5.78,5.78,0,0,0,0,8.15Z" fill="#d64a08"/><path d="M218.47,267.34a5.87,5.87,0,0,0,1.82,4.33,6,6,0,0,0,10.27-4.33,5.6,5.6,0,0,0-1.81-4.26,6,6,0,0,0-8.46,0A5.61,5.61,0,0,0,218.47,267.34Z" fill="#d64a08"/><path d="M249.89,268.25a7.46,7.46,0,0,0,1.61,4.84,4.63,4.63,0,0,0,3.75,1.94,4.91,4.91,0,0,0,3.82-1.94,7.72,7.72,0,0,0,1.48-4.84,7.63,7.63,0,0,0-1.48-4.85,5,5,0,0,0-3.82-2,4.73,4.73,0,0,0-3.75,2A7.37,7.37,0,0,0,249.89,268.25Z" fill="#df713d"/><path d="M273.55,263.27a5.84,5.84,0,0,0-8.34,0,5.5,5.5,0,0,0-1.75,4.14,6,6,0,0,0,6,5.94,5.53,5.53,0,0,0,4.14-1.74,5.87,5.87,0,0,0,0-8.34Z" fill="#d64a08"/><path d="M305.22,264.56a7.26,7.26,0,0,0-2.13,5.3,7.29,7.29,0,0,0,7.43,7.44,7.39,7.39,0,0,0,7.43-7.44,7.09,7.09,0,0,0-2.19-5.3,7.31,7.31,0,0,0-5.24-2.2A7.44,7.44,0,0,0,305.22,264.56Z" fill="#dd6933"/><path d="M10.34,265a7,7,0,0,0,0,8.47,4.18,4.18,0,0,0,6.79,0,7,7,0,0,0,0-8.47,4.18,4.18,0,0,0-6.79,0Z" fill="#d64a08"/><path d="M114.93,263.08a4.86,4.86,0,0,0-4,2.13,7.74,7.74,0,0,0-1.62,5,8,8,0,0,0,1.62,5.11,4.77,4.77,0,0,0,8,0,7.75,7.75,0,0,0,1.68-5.11,7.46,7.46,0,0,0-1.68-5A4.84,4.84,0,0,0,114.93,263.08Z" fill="#d64a08"/><path d="M237.48,266.05a5.07,5.07,0,0,0-1.62,3.68,5.38,5.38,0,0,0,1.62,3.82,5.4,5.4,0,0,0,7.43,0,5.31,5.31,0,0,0,1.55-3.82,5.29,5.29,0,0,0-5.3-5.23A4.9,4.9,0,0,0,237.48,266.05Z" fill="#d64a08"/><path d="M296.3,264.18a3.55,3.55,0,0,0-2.78,1.67,7.86,7.86,0,0,0,0,8,3.39,3.39,0,0,0,2.78,1.68,3.16,3.16,0,0,0,2.78-1.68,6.72,6.72,0,0,0,1.16-4,6.87,6.87,0,0,0-1.16-4A3.29,3.29,0,0,0,296.3,264.18Z" fill="#d64a08"/><path d="M69,266.57A4.94,4.94,0,0,0,72.52,275,4.72,4.72,0,0,0,76,273.61a5,5,0,0,0-7-7Z" fill="#d64a08"/><path d="M205.68,268.31a6.29,6.29,0,0,0-1.81,4.46,6,6,0,0,0,1.81,4.4,6.11,6.11,0,0,0,4.46,1.87,6.38,6.38,0,0,0,4.52-1.87,6,6,0,0,0,1.81-4.4,6.18,6.18,0,0,0-6.33-6.27A6,6,0,0,0,205.68,268.31Z" fill="#d64a08"/><path d="M47.7,286.09c.78,1.35,1.62,2,2.59,2a3.09,3.09,0,0,0,2.65-2,12.39,12.39,0,0,0,0-9.89c-.71-1.36-1.62-2.07-2.65-2.07s-1.81.71-2.59,2.07a12.39,12.39,0,0,0,0,9.89Z" fill="#d64a08"/><path d="M84.68,285.57a5.17,5.17,0,0,0,3.74,1.55,5.34,5.34,0,1,0,0-10.67A5.14,5.14,0,0,0,84.68,278a5.36,5.36,0,0,0,0,7.56Z" fill="#d64a08"/><path d="M232.44,286.09a4.08,4.08,0,0,0,3.16,1.74,4,4,0,0,0,3.17-1.74,6.45,6.45,0,0,0,1.29-4.14,6.33,6.33,0,0,0-1.29-4.14,3.77,3.77,0,0,0-3.17-1.68,3.85,3.85,0,0,0-3.16,1.68,6.75,6.75,0,0,0-1.3,4.14A6.9,6.9,0,0,0,232.44,286.09Z" fill="#d64a08"/><path d="M258.16,286.09a5.53,5.53,0,0,0,4.14,1.74,5.44,5.44,0,0,0,4.14-1.74,5.69,5.69,0,0,0,1.74-4.2,5.42,5.42,0,0,0-1.74-4.14A5.21,5.21,0,0,0,262.3,276a5.29,5.29,0,0,0-4.14,1.75,5.37,5.37,0,0,0-1.68,4.14A5.64,5.64,0,0,0,258.16,286.09Z" fill="#d64a08"/><path d="M16.29,286.47a6,6,0,0,0,4.33,1.75A5.92,5.92,0,0,0,25,286.47a5.73,5.73,0,0,0,1.81-4.33,5.59,5.59,0,0,0-1.81-4.2,5.75,5.75,0,0,0-4.33-1.81,6.18,6.18,0,0,0-6.14,6A6,6,0,0,0,16.29,286.47Z" fill="#d64a08"/><path d="M59,286.47A5.26,5.26,0,0,0,62.7,288a5.1,5.1,0,0,0,3.62-1.49,5,5,0,0,0,1.55-3.68,4.82,4.82,0,0,0-1.55-3.68,5.1,5.1,0,0,0-3.62-1.49A5.26,5.26,0,0,0,59,279.11a5,5,0,0,0-1.48,3.68A5.21,5.21,0,0,0,59,286.47Z" fill="#df713d"/><path d="M72.52,286a3.53,3.53,0,0,0,5.76,0,6.39,6.39,0,0,0,1.22-3.75,6.13,6.13,0,0,0-1.22-3.75,3.45,3.45,0,0,0-5.76,0,6.13,6.13,0,0,0-1.22,3.75A6.39,6.39,0,0,0,72.52,286Z" fill="#d64a08"/><path d="M98.83,286.54a8.42,8.42,0,0,0,5.11,1.55,8.63,8.63,0,0,0,5.17-1.55,5.12,5.12,0,0,0,2.07-3.94,5,5,0,0,0-2.07-4,8.22,8.22,0,0,0-5.17-1.62,8,8,0,0,0-5.11,1.62,4.86,4.86,0,0,0-2.13,4A5,5,0,0,0,98.83,286.54Z" fill="#d64a08"/><path d="M117.71,286.54a7.54,7.54,0,0,0,4.65,1.49,7.62,7.62,0,0,0,4.72-1.49,4.17,4.17,0,0,0,2-3.49,4.1,4.1,0,0,0-2-3.49,7.58,7.58,0,0,0-4.72-1.42,7.49,7.49,0,0,0-4.65,1.42,4.17,4.17,0,0,0-1.94,3.49A4.25,4.25,0,0,0,117.71,286.54Z" fill="#d64a08"/><path d="M225.2,279.23a10.12,10.12,0,0,0-10.34,0,4.41,4.41,0,0,0-2.2,3.63,4.22,4.22,0,0,0,2.2,3.55,9.71,9.71,0,0,0,10.34,0,4.36,4.36,0,0,0,2.19-3.55A4.57,4.57,0,0,0,225.2,279.23Z" fill="#d64a08"/><path d="M272.19,286.8a5.57,5.57,0,0,0,4.14,1.68,5.74,5.74,0,0,0,5.81-5.82,5.55,5.55,0,0,0-1.68-4.07,6,6,0,0,0-4.13-1.75,5.87,5.87,0,0,0-4.14,1.75,5.55,5.55,0,0,0-1.68,4.07A5.7,5.7,0,0,0,272.19,286.8Z" fill="#6a6264"/><path d="M202.12,286.67A3.74,3.74,0,0,0,205,287.9a3.83,3.83,0,0,0,2.84-1.23,3.75,3.75,0,0,0,1.16-2.78,4,4,0,0,0-1.16-2.91,4,4,0,0,0-2.84-1.16,3.9,3.9,0,0,0-2.85,1.16,4.08,4.08,0,0,0-1.16,2.91A3.78,3.78,0,0,0,202.12,286.67Z" fill="#d64a08"/><path d="M245.69,286.86a6.59,6.59,0,0,0,4.2,1.3,6.37,6.37,0,0,0,4.2-1.3,3.72,3.72,0,0,0,1.74-3.1,3.81,3.81,0,0,0-1.74-3,6.78,6.78,0,0,0-4.2-1.29,7,7,0,0,0-4.2,1.29,3.57,3.57,0,0,0,0,6.14Z" fill="#d64a08"/><path d="M282.72,299.14a3.78,3.78,0,0,0,2.91,1.23,4,4,0,0,0,3-1.23,3.75,3.75,0,0,0,1.23-2.91,4,4,0,0,0-1.23-3,4.29,4.29,0,0,0-3-1.23,4,4,0,0,0-2.91,1.23,4.06,4.06,0,0,0-1.29,3A3.81,3.81,0,0,0,282.72,299.14Z" fill="#d64a08"/><path d="M291.58,288.74a4.68,4.68,0,0,0,8-3.23,4.26,4.26,0,0,0-1.35-3.24,4.62,4.62,0,0,0-3.36-1.42,4.69,4.69,0,0,0-3.3,1.42,4.44,4.44,0,0,0-1.29,3.24A4.55,4.55,0,0,0,291.58,288.74Z" fill="#d64a08"/><path d="M194,45.77a6.88,6.88,0,0,0,9.56,0,6.45,6.45,0,0,0,2-4.79,6.3,6.3,0,0,0-2-4.72,6.86,6.86,0,0,0-9.56,0,6.8,6.8,0,0,0,0,9.51Z" fill="#6a6264"/><path d="M195.27,49.06a5.35,5.35,0,0,0-4-1.61,5.2,5.2,0,0,0-3.94,1.61,5.49,5.49,0,0,0-1.75,4.07,5.37,5.37,0,0,0,1.75,4,5.26,5.26,0,0,0,3.94,1.68,5.41,5.41,0,0,0,4-1.68,5.36,5.36,0,0,0,1.74-4A5.48,5.48,0,0,0,195.27,49.06Z" fill="#6a6264"/><path d="M215.5,60.05A6.38,6.38,0,0,0,220.16,62a6.08,6.08,0,0,0,4.52-1.94,6.47,6.47,0,0,0,0-9.24,6,6,0,0,0-4.52-1.94,6.34,6.34,0,0,0-4.66,1.94,6.8,6.8,0,0,0,0,9.24Z" fill="#6a6264"/><path d="M129.73,58.63a5.51,5.51,0,0,0,4,1.68,5.68,5.68,0,0,0,4.07-1.68,5.29,5.29,0,0,0,1.68-4,5.5,5.5,0,0,0-1.68-4,5.62,5.62,0,0,0-4.07-1.62,5.53,5.53,0,0,0-5.63,5.62A5.24,5.24,0,0,0,129.73,58.63Z" fill="#6a6264"/><path d="M219.9,69a6,6,0,0,0-1.75-4.26A5.63,5.63,0,0,0,214,63a5.41,5.41,0,0,0-4.14,1.75A6,6,0,0,0,208.07,69a5.82,5.82,0,0,0,1.74,4.27A5.67,5.67,0,0,0,214,75.05a6,6,0,0,0,6-6Z" fill="#6a6264"/><path d="M195.92,73.43a5.5,5.5,0,0,0,9.37-3.88,5.49,5.49,0,0,0-9.37-3.88,5.29,5.29,0,0,0-1.62,3.88A5.08,5.08,0,0,0,195.92,73.43Z" fill="#6a6264"/><path d="M176.52,78.08a7,7,0,0,0-5.1,2.14,7.21,7.21,0,0,0-2.13,5.17,7.27,7.27,0,0,0,14.54,0,7.25,7.25,0,0,0-2.13-5.17A7.07,7.07,0,0,0,176.52,78.08Z" fill="#cca690"/><path d="M118.87,100.45a5.54,5.54,0,0,0,3.81,1.48,5.44,5.44,0,0,0,3.82-1.48,5.55,5.55,0,0,0,1.61-3.88,5.37,5.37,0,0,0-1.61-3.75,5.25,5.25,0,0,0-3.82-1.55,5.35,5.35,0,0,0-3.81,1.55,5.1,5.1,0,0,0-1.62,3.75A5.27,5.27,0,0,0,118.87,100.45Z" fill="#cca690"/><path d="M146.53,97.67a5.87,5.87,0,0,0-1.87-4.46,6.18,6.18,0,0,0-4.4-1.81,6.33,6.33,0,0,0-4.46,1.81,6.17,6.17,0,0,0,0,8.85,6.29,6.29,0,0,0,4.46,1.81,6.14,6.14,0,0,0,4.4-1.81A5.82,5.82,0,0,0,146.53,97.67Z" fill="#9e8680"/><path d="M190.42,98.18a4.91,4.91,0,0,0-1.61-3.74,5.2,5.2,0,0,0-3.69-1.55,5.29,5.29,0,0,0-5.23,5.29,5.19,5.19,0,0,0,5.23,5.18,5.14,5.14,0,0,0,3.69-1.49A4.89,4.89,0,0,0,190.42,98.18Z" fill="#9e8680"/><path d="M139.23,111.11a5.44,5.44,0,0,0-1.68-4.07,5.27,5.27,0,0,0-4-1.62,5.47,5.47,0,0,0-4,1.62,5.72,5.72,0,0,0-1.68,4.07,5.45,5.45,0,0,0,1.68,4,5.3,5.3,0,0,0,4,1.68,5.74,5.74,0,0,0,5.69-5.69Z" fill="#cca690"/><path d="M103.23,108.46A6.18,6.18,0,0,0,107.49,119a6,6,0,0,0,4.33-1.81,6.17,6.17,0,0,0,0-8.73,5.75,5.75,0,0,0-4.33-1.81A5.6,5.6,0,0,0,103.23,108.46Z" fill="#6a6264"/><path d="M144.4,107.82a7.27,7.27,0,0,0-2.2,5.23,7.41,7.41,0,0,0,7.5,7.44,7.27,7.27,0,0,0,5.3-2.14,7.15,7.15,0,0,0,2.2-5.3,7,7,0,0,0-2.2-5.23,7.29,7.29,0,0,0-5.3-2.2A7.4,7.4,0,0,0,144.4,107.82Z" fill="#cca690"/><path d="M180,130.63a5.1,5.1,0,0,0,3.94,1.68,5.18,5.18,0,0,0,4-1.68,5.44,5.44,0,0,0,1.68-4,5.55,5.55,0,0,0-1.68-4,5.61,5.61,0,0,0-4-1.62,5.63,5.63,0,0,0-5.62,5.63A5.41,5.41,0,0,0,180,130.63Z" fill="#cca690"/><path d="M210.33,125.66a5.35,5.35,0,0,0,1.62,4,5.26,5.26,0,0,0,3.88,1.62,5.45,5.45,0,0,0,4-1.62,5.59,5.59,0,0,0,1.62-4,5.68,5.68,0,0,0-1.62-4,5.5,5.5,0,0,0-4-1.68,5.32,5.32,0,0,0-3.88,1.68A5.43,5.43,0,0,0,210.33,125.66Z" fill="#cca690"/><path d="M101.09,130a5.63,5.63,0,1,0,0-7.89,5.47,5.47,0,0,0,0,7.89Z" fill="#9e8680"/><path d="M196.56,131.86a6.32,6.32,0,0,0,4.72,2,6.74,6.74,0,0,0,6.79-6.73,6.48,6.48,0,0,0-1.94-4.71,6.39,6.39,0,0,0-4.85-2,6.85,6.85,0,0,0-6.72,6.72A6.22,6.22,0,0,0,196.56,131.86Z" fill="#cca690"/><path d="M186.74,139.75a6.78,6.78,0,0,0,1.94,4.84,6.62,6.62,0,0,0,4.84,2.07,6.44,6.44,0,0,0,4.85-2.07,6.8,6.8,0,0,0,2-4.84,6.71,6.71,0,0,0-2-4.85,6.39,6.39,0,0,0-4.85-2,6.56,6.56,0,0,0-4.84,2A6.68,6.68,0,0,0,186.74,139.75Z" fill="#cca690"/><path d="M167.8,158.88a7.13,7.13,0,0,0,5,2.13,6.89,6.89,0,0,0,5-2.13,7,7,0,0,0,0-10,6.66,6.66,0,0,0-5-2.13,6.89,6.89,0,0,0-5,2.13,7.1,7.1,0,0,0,0,10Z" fill="#cca690"/><path d="M201,173.16a4.68,4.68,0,0,0,3.81,2.14,4.8,4.8,0,0,0,3.88-2.14,8.86,8.86,0,0,0,0-10,5,5,0,0,0-3.88-2.14,4.87,4.87,0,0,0-3.81,2.14,8.54,8.54,0,0,0,0,10Z" fill="#cca690"/><path d="M156.55,174.07c-1.23,0-2.2.78-3.1,2.33a11.52,11.52,0,0,0-1.23,5.43,11.84,11.84,0,0,0,1.23,5.49c.9,1.55,1.87,2.26,3.1,2.26s2.26-.71,3-2.26a11.14,11.14,0,0,0,1.29-5.49,10.85,10.85,0,0,0-1.29-5.43C158.75,174.85,157.78,174.07,156.55,174.07Z" fill="#cca690"/><path d="M168,175.69a5.82,5.82,0,0,0,0,11.63,5.94,5.94,0,0,0,4.2-1.68,6.09,6.09,0,0,0,0-8.27A5.94,5.94,0,0,0,168,175.69Z" fill="#cca690"/><path d="M179,189.26a6.79,6.79,0,0,0,5,2.13,6.67,6.67,0,0,0,5-2.13,6.93,6.93,0,0,0,0-10,6.62,6.62,0,0,0-5-2.07,6.74,6.74,0,0,0-5,2.07,7.1,7.1,0,0,0,0,10Z" fill="#cca690"/><path d="M113.37,199.93a6.39,6.39,0,0,0,4.79,2,6.52,6.52,0,0,0,4.85-2,6.62,6.62,0,0,0,2-4.79,6.83,6.83,0,0,0-6.85-6.85,6.62,6.62,0,0,0-4.79,2,6.52,6.52,0,0,0-2,4.85A6.39,6.39,0,0,0,113.37,199.93Z" fill="#6a6264"/><path d="M191.33,201.09a5,5,0,0,0,3.75,1.49,5.21,5.21,0,0,0,3.74-1.49,5.51,5.51,0,0,0,1.49-3.75,5.19,5.19,0,0,0-5.23-5.3,5.29,5.29,0,0,0-5.3,5.3A5.27,5.27,0,0,0,191.33,201.09Z" fill="#cca690"/><path d="M156,204.38a6.41,6.41,0,0,0-4.72,1.94,6.71,6.71,0,0,0,0,9.44,6.71,6.71,0,0,0,9.44,0,6.71,6.71,0,0,0,0-9.44A6.39,6.39,0,0,0,156,204.38Z" fill="#cca690"/><path d="M213.5,205.74a6.88,6.88,0,0,0-5.11,2.07,7.11,7.11,0,0,0-2.07,5.11,7,7,0,0,0,2.07,5.1,6.9,6.9,0,0,0,5.11,2.14,6.67,6.67,0,0,0,5-2.14,6.82,6.82,0,0,0,2.13-5.1,6.93,6.93,0,0,0-2.13-5.11A6.65,6.65,0,0,0,213.5,205.74Z" fill="#6a6264"/><path d="M145,206.78a5.51,5.51,0,0,0-4-1.68,5.76,5.76,0,0,0-4.07,9.82A5.34,5.34,0,0,0,141,216.6a5.28,5.28,0,0,0,4-1.68,5.77,5.77,0,0,0,0-8.14Z" fill="#cca690"/><path d="M91.92,218.41a9.81,9.81,0,0,0,11,0,5,5,0,0,0,2.27-4.07,5.12,5.12,0,0,0-2.27-4.07,9.81,9.81,0,0,0-11,0,5,5,0,0,0-2.2,4.07A4.88,4.88,0,0,0,91.92,218.41Z" fill="#cca690"/><path d="M173.68,227.91a6,6,0,0,0,4.27,1.75,5.76,5.76,0,0,0,4.26-1.75,6,6,0,0,0,1.75-4.2,6.34,6.34,0,0,0-1.75-4.33,6,6,0,0,0-4.26-1.75,6.31,6.31,0,0,0-4.27,1.75,6.07,6.07,0,0,0-1.74,4.33A5.76,5.76,0,0,0,173.68,227.91Z" fill="#9e8680"/><path d="M200,228.69a6,6,0,0,0,4.52,1.94,6.21,6.21,0,0,0,4.59-1.94,6.54,6.54,0,0,0,0-9.18,6.21,6.21,0,0,0-4.59-1.94,6,6,0,0,0-4.52,1.94,6.4,6.4,0,0,0,0,9.18Z" fill="#9e8680"/><path d="M146.08,227.72a3.48,3.48,0,0,0,2.78,1.55,3.4,3.4,0,0,0,2.84-1.55,6.93,6.93,0,0,0,1.1-3.88,6.66,6.66,0,0,0-1.1-3.88,3.38,3.38,0,0,0-2.84-1.68,3.47,3.47,0,0,0-2.78,1.68,6.34,6.34,0,0,0-1.16,3.88A6.59,6.59,0,0,0,146.08,227.72Z" fill="#cca690"/><path d="M167,220.29a5.92,5.92,0,0,0-4.33-1.75,6.08,6.08,0,0,0-6.2,6.14A5.86,5.86,0,0,0,158.3,229a6,6,0,0,0,4.39,1.88,6.3,6.3,0,0,0,6.14-6.21A6.1,6.1,0,0,0,167,220.29Z" fill="#9e8680"/><path d="M230.17,231.15a5.94,5.94,0,0,0,4.14,1.74,5.94,5.94,0,0,0,5.88-5.95,5.79,5.79,0,0,0-1.74-4.2,5.44,5.44,0,0,0-4.14-1.74,5.65,5.65,0,0,0-4.14,1.74,5.79,5.79,0,0,0-1.74,4.2A5.7,5.7,0,0,0,230.17,231.15Z" fill="#cca690"/><path d="M71.23,233.8A5.68,5.68,0,0,0,76,236.25a5.86,5.86,0,0,0,4.72-2.45A8.94,8.94,0,0,0,82.61,228a9.07,9.07,0,0,0-1.94-5.88A5.92,5.92,0,0,0,76,219.57a5.74,5.74,0,0,0-4.72,2.53,9.79,9.79,0,0,0,0,11.7Z" fill="#cca690"/><path d="M122.42,232.89a9.75,9.75,0,0,0-1.22,4.91,9.89,9.89,0,0,0,1.22,4.91c.91,1.36,1.88,2.07,3.11,2.07a3.5,3.5,0,0,0,3-2.07,8.65,8.65,0,0,0,1.3-4.91,8.54,8.54,0,0,0-1.3-4.91,3.42,3.42,0,0,0-3-2A3.68,3.68,0,0,0,122.42,232.89Z" fill="#6a6264"/><path d="M206.58,232.89a7.2,7.2,0,0,0-1.42,4.59,7.49,7.49,0,0,0,1.42,4.65,4.18,4.18,0,0,0,7,0,7.49,7.49,0,0,0,1.42-4.65,7.2,7.2,0,0,0-1.42-4.59,4.11,4.11,0,0,0-7,0Z" fill="#6a6264"/><path d="M225,235.67a5.52,5.52,0,0,0-4.13,1.74,5.93,5.93,0,0,0,0,8.41,6,6,0,0,0,8.33,0,5.77,5.77,0,0,0,0-8.41A5.55,5.55,0,0,0,225,235.67Z" fill="#9e8680"/><path d="M186.09,253.7a4.57,4.57,0,0,0,2.07,3.82,7.36,7.36,0,0,0,4.91,1.61,7.79,7.79,0,0,0,5-1.61,4.55,4.55,0,0,0,0-7.63,7.8,7.8,0,0,0-5-1.62,7.36,7.36,0,0,0-4.91,1.62A4.55,4.55,0,0,0,186.09,253.7Z" fill="#9e8680"/><path d="M204.84,253.83a5,5,0,0,0,7.24,0,5.81,5.81,0,0,0,0-7.75,5,5,0,0,0-7.24,0,5.78,5.78,0,0,0,0,7.75Z" fill="#6a6264"/><path d="M43.63,262.36a6.93,6.93,0,0,0,5,2.07,6.79,6.79,0,0,0,4.91-2.07,6.88,6.88,0,0,0,2-4.91,6.85,6.85,0,0,0-6.91-6.92,7.17,7.17,0,0,0-5,2,7,7,0,0,0-2,4.91A6.88,6.88,0,0,0,43.63,262.36Z" fill="#e4885a"/><path d="M178.79,271.35a6.35,6.35,0,0,0,4.65,1.94A6.62,6.62,0,0,0,190,266.7,6.37,6.37,0,0,0,188,262a6.21,6.21,0,0,0-4.59-1.94,6.35,6.35,0,0,0-4.65,1.94,6.55,6.55,0,0,0-1.88,4.66A6.43,6.43,0,0,0,178.79,271.35Z" fill="#9e8680"/><path d="M167.28,264.56a8.05,8.05,0,0,0-1.55,5,8.2,8.2,0,0,0,1.55,5,4.19,4.19,0,0,0,3.49,2.06,4.48,4.48,0,0,0,3.62-2.06,8.57,8.57,0,0,0,1.49-5,8.41,8.41,0,0,0-1.49-5,4.32,4.32,0,0,0-3.62-2.07A4.11,4.11,0,0,0,167.28,264.56Z" fill="#9e8680"/><path d="M34.78,265.27a6.08,6.08,0,0,0-1.94,4.59,6.34,6.34,0,0,0,1.94,4.66,6.07,6.07,0,0,0,4.58,1.93,6.61,6.61,0,0,0,6.53-6.59A6.08,6.08,0,0,0,44,265.27a6.59,6.59,0,0,0-4.59-1.93A6.34,6.34,0,0,0,34.78,265.27Z" fill="#6a6264"/><path d="M141.3,278.39a5.54,5.54,0,0,0-4.07-1.61,5.48,5.48,0,0,0-4,1.61,5.65,5.65,0,0,0-1.68,4.14,5.38,5.38,0,0,0,1.68,4.07,5.25,5.25,0,0,0,4,1.68,5.41,5.41,0,0,0,4.07-1.68,5.64,5.64,0,0,0,1.68-4.07A5.94,5.94,0,0,0,141.3,278.39Z" fill="#6a6264"/><path d="M143.11,36.39a5.66,5.66,0,0,0-4.27-1.74,5.54,5.54,0,0,0-4.26,1.74,6,6,0,0,0,0,8.6,5.6,5.6,0,0,0,4.26,1.81A5.73,5.73,0,0,0,143.11,45a6.18,6.18,0,0,0,0-8.6Z" fill="#645c5a"/><path d="M201.28,59.08a5.93,5.93,0,0,0,4.14,1.68,5.8,5.8,0,0,0,4.13-1.68,6,6,0,0,0,1.75-4.2,6,6,0,0,0-5.88-5.82,5.71,5.71,0,0,0-4.14,1.75,5.55,5.55,0,0,0-1.68,4.07A6,6,0,0,0,201.28,59.08Z" fill="#6a6264"/><path d="M168,56.49a9.23,9.23,0,0,0-1.74-5.81,5.14,5.14,0,0,0-4.14-2.39,5.33,5.33,0,0,0-4.26,2.39,9.58,9.58,0,0,0-1.69,5.81,9.57,9.57,0,0,0,1.69,5.76,5.24,5.24,0,0,0,4.26,2.32,5,5,0,0,0,4.14-2.32A9.22,9.22,0,0,0,168,56.49Z" fill="#9e8680"/><path d="M143.69,59.34a5.23,5.23,0,0,0,3.81,1.55,5.07,5.07,0,0,0,3.69-1.55,4.72,4.72,0,0,0,1.55-3.69,5.31,5.31,0,0,0-5.24-5.3,5,5,0,0,0-3.81,1.56,5.07,5.07,0,0,0-1.55,3.74A5,5,0,0,0,143.69,59.34Z" fill="#9e8680"/><path d="M224.36,71.3A6.11,6.11,0,0,0,234.76,67,5.67,5.67,0,0,0,233,62.63a6,6,0,0,0-8.59,0A5.67,5.67,0,0,0,222.55,67,5.86,5.86,0,0,0,224.36,71.3Z" fill="#6a6264"/><path d="M111.18,75.76a4,4,0,0,0,6.78,0,7.53,7.53,0,0,0,1.43-4.53A7.71,7.71,0,0,0,118,66.64a4.08,4.08,0,0,0-6.78,0,7.71,7.71,0,0,0-1.43,4.59A7.53,7.53,0,0,0,111.18,75.76Z" fill="#6a6264"/><path d="M123.26,74.85a3.84,3.84,0,0,0,5.5,0,3.61,3.61,0,0,0,1.16-2.71,3.89,3.89,0,0,0-6.66-2.72,3.54,3.54,0,0,0-1.16,2.72A3.61,3.61,0,0,0,123.26,74.85Z" fill="#9e8680"/><path d="M233.47,76.47a8,8,0,0,0-5,1.61,4.78,4.78,0,0,0-2.13,4A4.66,4.66,0,0,0,228.43,86a7.62,7.62,0,0,0,5,1.68A7.74,7.74,0,0,0,238.64,86a4.77,4.77,0,0,0,2.07-3.94,4.89,4.89,0,0,0-2.07-4A8.08,8.08,0,0,0,233.47,76.47Z" fill="#6a6264"/><path d="M203.93,77.5A4.72,4.72,0,0,0,200.31,79a4.94,4.94,0,0,0-1.49,3.55,5.07,5.07,0,0,0,1.49,3.62,5,5,0,0,0,3.62,1.49A5.09,5.09,0,0,0,209,82.54,4.94,4.94,0,0,0,207.55,79,4.81,4.81,0,0,0,203.93,77.5Z" fill="#9e8680"/><path d="M122.29,80.22a6.18,6.18,0,0,0-3.81,1.16,3.75,3.75,0,0,0-1.55,3,3.61,3.61,0,0,0,1.55,2.91,5.86,5.86,0,0,0,3.81,1.22,6,6,0,0,0,3.82-1.22,3.5,3.5,0,0,0,1.61-2.91,3.63,3.63,0,0,0-1.61-3A6.34,6.34,0,0,0,122.29,80.22Z" fill="#cca690"/><path d="M223.71,101a5.23,5.23,0,0,0,7.31,0,5.21,5.21,0,0,0,1.55-3.75A5,5,0,0,0,231,93.6a5.08,5.08,0,0,0-7.31,0,4.85,4.85,0,0,0-1.62,3.68A5.1,5.1,0,0,0,223.71,101Z" fill="#6a6264"/><path d="M152.61,104.65a4.42,4.42,0,0,0,7.56,0,8.76,8.76,0,0,0,0-10.15,4.42,4.42,0,0,0-7.56,0,8.76,8.76,0,0,0,0,10.15Z" fill="#cca690"/><path d="M206.06,104.13a6.42,6.42,0,0,0,4.72,1.94,6.66,6.66,0,1,0,0-13.31,6.38,6.38,0,0,0-4.72,1.94,6.56,6.56,0,0,0,0,9.43Z" fill="#9e8680"/><path d="M219.25,107.56a6.35,6.35,0,0,0-1.94,4.65,6.27,6.27,0,0,0,1.94,4.66,5.87,5.87,0,0,0,4.53,1.94,6,6,0,0,0,4.65-1.94,6.27,6.27,0,0,0,1.94-4.66,6.35,6.35,0,0,0-1.94-4.65,6.25,6.25,0,0,0-4.65-1.94A6.08,6.08,0,0,0,219.25,107.56Z" fill="#6a6264"/><path d="M196.69,111a6.66,6.66,0,0,0-4.78-1.94,6.8,6.8,0,0,0-4.85,1.94,6.66,6.66,0,0,0-1.94,4.79,6.52,6.52,0,0,0,1.94,4.72,6.8,6.8,0,0,0,4.85,1.94,6.66,6.66,0,0,0,4.78-1.94,6.63,6.63,0,0,0,0-9.51Z" fill="#9e8680"/><path d="M218.22,135.48a9.44,9.44,0,0,0-1.56,5.24,8.92,8.92,0,0,0,1.56,5.17,4.4,4.4,0,0,0,7.62,0,8.92,8.92,0,0,0,1.55-5.17,9.43,9.43,0,0,0-1.55-5.24,4.47,4.47,0,0,0-7.62,0Z" fill="#6a6264"/><path d="M104.13,143.56a5.16,5.16,0,0,0,4,1.68,5.74,5.74,0,0,0,5.75-5.69,5.74,5.74,0,0,0-5.75-5.75,5.74,5.74,0,0,0-5.69,5.75A5.2,5.2,0,0,0,104.13,143.56Z" fill="#cca690"/><path d="M165.6,166.64a5.41,5.41,0,0,0-5.43-5.5,5.4,5.4,0,0,0-3.88,9.31,5.14,5.14,0,0,0,3.88,1.68,5.33,5.33,0,0,0,3.88-1.68A5.25,5.25,0,0,0,165.6,166.64Z" fill="#cca690"/><path d="M127.79,174.91a6.52,6.52,0,0,0-4.78,1.94,6.62,6.62,0,0,0,0,9.5,6.52,6.52,0,0,0,4.78,1.94,6.82,6.82,0,0,0,4.85-1.94,6.78,6.78,0,0,0,0-9.5A6.82,6.82,0,0,0,127.79,174.91Z" fill="#edc1a3"/><path d="M140.46,185.77a4.9,4.9,0,0,0,7,0,4.63,4.63,0,0,0,1.42-3.49,4.94,4.94,0,1,0-9.88,0A4.63,4.63,0,0,0,140.46,185.77Z" fill="#edc1a3"/><path d="M143.43,202.77a6.79,6.79,0,0,0,3.69,1,6.41,6.41,0,0,0,3.62-1,2.77,2.77,0,0,0,1.55-2.33,2.69,2.69,0,0,0-1.55-2.26,6.41,6.41,0,0,0-3.62-1,6.79,6.79,0,0,0-3.69,1,2.74,2.74,0,0,0-1.49,2.26A2.83,2.83,0,0,0,143.43,202.77Z" fill="#cca690"/><path d="M117.19,205.29a6.26,6.26,0,0,0-4.59-1.87,6.11,6.11,0,0,0-4.66,1.87,6.18,6.18,0,0,0-1.87,4.52,6.53,6.53,0,0,0,1.87,4.59,6.08,6.08,0,0,0,4.66,1.88,6.23,6.23,0,0,0,4.59-1.88,6.48,6.48,0,0,0,1.87-4.59A6.14,6.14,0,0,0,117.19,205.29Z" fill="#6a6264"/><path d="M186.93,204.77a3.75,3.75,0,0,0-3.17,1.88,7.52,7.52,0,0,0-1.35,4.52,7.7,7.7,0,0,0,1.35,4.53,3.76,3.76,0,0,0,3.17,1.87,3.85,3.85,0,0,0,3.23-1.87,7.68,7.68,0,0,0,1.43-4.53,7.5,7.5,0,0,0-1.43-4.52A3.83,3.83,0,0,0,186.93,204.77Z" fill="#9e8680"/><path d="M193.52,222.81a5.19,5.19,0,0,0-3.62-1.49,4.94,4.94,0,0,0-3.55,1.49,5.07,5.07,0,0,0-1.49,3.62,4.71,4.71,0,0,0,1.49,3.49,4.77,4.77,0,0,0,3.55,1.55,5,5,0,0,0,3.62-1.55,4.65,4.65,0,0,0,1.43-3.49A5,5,0,0,0,193.52,222.81Z" fill="#9e8680"/><path d="M215.31,232.11a6.47,6.47,0,0,0,8.85,0,6.38,6.38,0,0,0,1.81-4.46,6.23,6.23,0,0,0-1.81-4.39,6.24,6.24,0,0,0-10.66,4.39A6.13,6.13,0,0,0,215.31,232.11Z" fill="#9e8680"/><path d="M114.28,226.62a8.27,8.27,0,0,0,5.11,1.49,8.65,8.65,0,0,0,5.1-1.49,4.27,4.27,0,0,0,2.07-3.55,4.35,4.35,0,0,0-2.07-3.56,9.09,9.09,0,0,0-5.1-1.49,8.67,8.67,0,0,0-5.11,1.49,4.09,4.09,0,0,0,0,7.11Z" fill="#6a6264"/><path d="M149.64,234.38a6.64,6.64,0,0,0-2.14,5,6.86,6.86,0,0,0,2.14,5,7,7,0,0,0,5,2.07,7.07,7.07,0,0,0,7.11-7.11,7.19,7.19,0,0,0-7.11-7.18A6.75,6.75,0,0,0,149.64,234.38Z" fill="#9e8680"/><path d="M180.73,235.8a8.21,8.21,0,0,0,0,8.21,3.12,3.12,0,0,0,2.71,1.68,3,3,0,0,0,2.65-1.68,7.84,7.84,0,0,0,0-8.21,3.16,3.16,0,0,0-2.65-1.68A3.25,3.25,0,0,0,180.73,235.8Z" fill="#9e8680"/><path d="M193.4,236.38a6.07,6.07,0,0,0,0,8.53,5.63,5.63,0,0,0,4.2,1.75,5.74,5.74,0,0,0,4.2-1.75,6.1,6.1,0,0,0,0-8.53,5.77,5.77,0,0,0-4.2-1.74A5.66,5.66,0,0,0,193.4,236.38Z" fill="#9e8680"/><path d="M277,236.19a4.73,4.73,0,0,0-1.43,3.49,4.84,4.84,0,0,0,1.43,3.49,4.9,4.9,0,0,0,3.42,1.35,4.82,4.82,0,0,0,3.43-1.35,5.14,5.14,0,0,0,1.42-3.49,5,5,0,0,0-1.42-3.49,4.61,4.61,0,0,0-3.43-1.43A4.69,4.69,0,0,0,277,236.19Z" fill="#6a6264"/><path d="M288,258.16a4.06,4.06,0,0,0,6.85,0,7.12,7.12,0,0,0,1.42-4.52,6.91,6.91,0,0,0-1.42-4.4,4.07,4.07,0,0,0-6.85,0,7.35,7.35,0,0,0-1.42,4.4A7.56,7.56,0,0,0,288,258.16Z" fill="#6a6264"/><path d="M115.25,258.42a6.07,6.07,0,0,0,8.53,0,6,6,0,0,0,1.75-4.27,6,6,0,0,0-10.28-4.2,5.68,5.68,0,0,0-1.75,4.2A6,6,0,0,0,115.25,258.42Z" fill="#6a6264"/><path d="M273.35,259.65a6.25,6.25,0,0,0,4.53,1.87,6.34,6.34,0,0,0,4.52-1.87,6.07,6.07,0,0,0,1.88-4.52,5.86,5.86,0,0,0-1.88-4.47,6.1,6.1,0,0,0-4.52-1.87,6,6,0,0,0-4.53,1.87,5.89,5.89,0,0,0-1.87,4.47A6.1,6.1,0,0,0,273.35,259.65Z" fill="#6a6264"/><path d="M147.24,262.3a4.19,4.19,0,0,0,7.37,0,8.75,8.75,0,0,0,1.55-5.24,8.86,8.86,0,0,0-1.55-5.3,4.25,4.25,0,0,0-7.37,0,8.92,8.92,0,0,0-1.55,5.3A8.82,8.82,0,0,0,147.24,262.3Z" fill="#9e8680"/><path d="M131,256.61a9.3,9.3,0,0,0,10.28,0,4.37,4.37,0,0,0,0-7.5,9.67,9.67,0,0,0-10.28,0,4.3,4.3,0,0,0,0,7.5Z" fill="#9e8680"/><path d="M280,264.05a8.3,8.3,0,0,0-1.56,5,8.71,8.71,0,0,0,1.56,5.17,4.75,4.75,0,0,0,3.75,2.07,4.9,4.9,0,0,0,3.87-2.07,9.18,9.18,0,0,0,1.49-5.17,8.74,8.74,0,0,0-1.49-5A4.71,4.71,0,0,0,283.7,262,4.57,4.57,0,0,0,280,264.05Z" fill="#6a6264"/><path d="M133.74,267.08a5.58,5.58,0,0,0,1.74,4.07,5.41,5.41,0,0,0,4.14,1.75,5.48,5.48,0,0,0,4.13-1.75,5.55,5.55,0,0,0,1.75-4.07,5.49,5.49,0,0,0-1.75-4.13,5.68,5.68,0,0,0-4.13-1.68,5.61,5.61,0,0,0-4.14,1.68A5.52,5.52,0,0,0,133.74,267.08Z" fill="#9e8680"/><path d="M152.35,269.34a5.32,5.32,0,0,0,1.68,3.88,6.5,6.5,0,0,0,8.28,0,5.42,5.42,0,0,0,1.74-3.88,5.13,5.13,0,0,0-1.74-3.74,6.3,6.3,0,0,0-8.28,0A5,5,0,0,0,152.35,269.34Z" fill="#9e8680"/><path d="M192.88,271.35a4.88,4.88,0,0,0,3.75,1.61,5.4,5.4,0,0,0,5.3-5.36,4.92,4.92,0,0,0-1.55-3.68,5.28,5.28,0,0,0-7.5,7.43Z" fill="#6a6264"/><path d="M147.57,286.15a3.57,3.57,0,0,0,3,2,3.51,3.51,0,0,0,3-2,10.18,10.18,0,0,0,1.16-5,10,10,0,0,0-1.16-5,3.58,3.58,0,0,0-3-2.07,3.65,3.65,0,0,0-3,2.07,9.86,9.86,0,0,0-1.23,5A10.09,10.09,0,0,0,147.57,286.15Z" fill="#9e8680"/><path d="M38.72,279.75a4.94,4.94,0,0,0-3.56-1.48,5.09,5.09,0,0,0-3.62,1.48,4.71,4.71,0,0,0-1.48,3.56,4.6,4.6,0,0,0,1.48,3.55,4.88,4.88,0,0,0,3.62,1.55,4.74,4.74,0,0,0,3.56-1.55,4.6,4.6,0,0,0,1.48-3.55A4.71,4.71,0,0,0,38.72,279.75Z" fill="#6a6264"/><path d="M169.48,280.53a8.64,8.64,0,0,0-5-1.36,8.74,8.74,0,0,0-5,1.36,3.53,3.53,0,0,0-2.07,3.1,3.63,3.63,0,0,0,2.07,3.17,8.82,8.82,0,0,0,5,1.36,8.71,8.71,0,0,0,5-1.36,3.65,3.65,0,0,0,2.07-3.17A3.55,3.55,0,0,0,169.48,280.53Z" fill="#9e8680"/><path d="M191.52,285.57a4.31,4.31,0,0,0,3.3,1.42,4.26,4.26,0,0,0,3.23-1.42,4.67,4.67,0,0,0,0-6.59,4.42,4.42,0,0,0-3.23-1.36,4.64,4.64,0,0,0-4.66,4.65A4.53,4.53,0,0,0,191.52,285.57Z" fill="#6a6264"/><path d="M176.33,286.15a6.46,6.46,0,0,0,9.11,0,6.32,6.32,0,0,0,1.95-4.65,6.05,6.05,0,0,0-1.95-4.53,6.32,6.32,0,0,0-9.11,0,6.25,6.25,0,0,0-1.87,4.53A6.52,6.52,0,0,0,176.33,286.15Z" fill="#9e8680"/><path d="M117.06,44a6.21,6.21,0,0,0,1.81,4.46,6.4,6.4,0,0,0,8.92,0A5.94,5.94,0,0,0,129.6,44a6,6,0,0,0-1.81-4.4,6.4,6.4,0,0,0-8.92,0A6.3,6.3,0,0,0,117.06,44Z" fill="#63554f"/><path d="M131.6,68.07a7.17,7.17,0,0,0,7.05,7.1,6.75,6.75,0,0,0,5-2.13,6.83,6.83,0,0,0,2.07-5A7.11,7.11,0,0,0,143.62,63a7,7,0,0,0-10,0A7.11,7.11,0,0,0,131.6,68.07Z" fill="#cca690"/><path d="M149.12,75.63a6.41,6.41,0,0,0,4.85,2,6.65,6.65,0,0,0,4.91-2,6.86,6.86,0,0,0,1.94-4.92A6.75,6.75,0,0,0,154,63.86a6.72,6.72,0,0,0-4.85,2,6.79,6.79,0,0,0,0,9.76Z" fill="#cca690"/><path d="M166.64,76.4a6.32,6.32,0,0,0,4.78,2,6.52,6.52,0,0,0,4.91-2,6.93,6.93,0,0,0,0-9.76,6.89,6.89,0,0,0-4.91-2,6.95,6.95,0,0,0-6.85,6.85A6.66,6.66,0,0,0,166.64,76.4Z" fill="#cca690"/><path d="M166.38,89.46a6.88,6.88,0,0,0-9.76-9.7,6.86,6.86,0,0,0,0,9.7,6.62,6.62,0,0,0,4.84,2.07A6.7,6.7,0,0,0,166.38,89.46Z" fill="#cca690"/><path d="M134.9,77.5a3.16,3.16,0,0,0-2.59,1.87,9.06,9.06,0,0,0-1,4.53,8.44,8.44,0,0,0,1,4.46,2.72,2.72,0,0,0,5.17,0,8.35,8.35,0,0,0,1-4.46,9,9,0,0,0-1-4.53A3.15,3.15,0,0,0,134.9,77.5Z" fill="#cca690"/><path d="M195.53,80.54a6,6,0,0,0-4.4-1.87,6.2,6.2,0,1,0,0,12.4,5.93,5.93,0,0,0,4.4-1.8,6.17,6.17,0,0,0,0-8.73Z" fill="#cca690"/><path d="M165.86,102.45a5.06,5.06,0,0,0,4,1.68,5.22,5.22,0,0,0,3.94-1.68,5.76,5.76,0,0,0,1.68-4.07,5.64,5.64,0,0,0-1.68-4.07,5.42,5.42,0,0,0-3.94-1.62,5.25,5.25,0,0,0-4,1.62,5.48,5.48,0,0,0-1.75,4.07A5.59,5.59,0,0,0,165.86,102.45Z" fill="#cca690"/><path d="M246.33,97.54a9,9,0,0,0-1.55-5.49A4.6,4.6,0,0,0,241,89.78a4.55,4.55,0,0,0-3.82,2.27,9.09,9.09,0,0,0-1.61,5.49,9.5,9.5,0,0,0,1.61,5.62,4.54,4.54,0,0,0,3.82,2.26,4.58,4.58,0,0,0,3.81-2.26A9.4,9.4,0,0,0,246.33,97.54Z" fill="#6d5b55"/><path d="M116.09,106.91a5.08,5.08,0,0,0-1.55,3.82,5.31,5.31,0,0,0,5.23,5.3,5.22,5.22,0,0,0,3.82-1.56,5.29,5.29,0,0,0,1.55-3.74,5.35,5.35,0,0,0-1.55-3.82,5.25,5.25,0,0,0-3.82-1.55A5,5,0,0,0,116.09,106.91Z" fill="#cca690"/><path d="M172,106.85a6.91,6.91,0,0,0-2.2,5.23,7,7,0,0,0,2.2,5.24,7.29,7.29,0,0,0,5.24,2.2,7.46,7.46,0,0,0,5.3-2.2,7.22,7.22,0,0,0,2.13-5.24,7.1,7.1,0,0,0-2.13-5.23,7.18,7.18,0,0,0-5.3-2.2A7,7,0,0,0,172,106.85Z" fill="#cca690"/><path d="M170.58,139a6.19,6.19,0,0,0,2.07,4.84,6.48,6.48,0,0,0,4.85,2,6.64,6.64,0,0,0,4.91-2,6.71,6.71,0,0,0,0-9.69,6.69,6.69,0,0,0-4.91-2.07,6.53,6.53,0,0,0-4.85,2.07A6.2,6.2,0,0,0,170.58,139Z" fill="#cca690"/><path d="M205.22,136a9.72,9.72,0,0,0,0,10.53,4.54,4.54,0,0,0,3.82,2.2,4.6,4.6,0,0,0,3.81-2.2,9.37,9.37,0,0,0,0-10.53,4.68,4.68,0,0,0-3.81-2.26A4.61,4.61,0,0,0,205.22,136Z" fill="#cca690"/><path d="M192.75,153.58a9.22,9.22,0,0,0-1.68-5.49,5.25,5.25,0,0,0-4.14-2.27,5,5,0,0,0-4.07,2.27,9.49,9.49,0,0,0,0,11,5,5,0,0,0,4.07,2.27,5.25,5.25,0,0,0,4.14-2.27A9.22,9.22,0,0,0,192.75,153.58Z" fill="#cca690"/><path d="M219.44,155.39a6.83,6.83,0,0,0-6.85-6.85,6.71,6.71,0,0,0-4.84,2,6.55,6.55,0,0,0-1.94,4.85,6.78,6.78,0,0,0,1.94,4.85,6.66,6.66,0,0,0,4.84,1.94,6.59,6.59,0,0,0,4.85-1.94A6.87,6.87,0,0,0,219.44,155.39Z" fill="#cca690"/><path d="M195.72,158.1a5.06,5.06,0,0,0,7.31,0,4.69,4.69,0,0,0,1.55-3.62,5.21,5.21,0,0,0-10.41,0A4.69,4.69,0,0,0,195.72,158.1Z" fill="#cca690"/><path d="M144.66,173.29a4.7,4.7,0,0,0,3.81,2.07,4.77,4.77,0,0,0,3.75-2.07,8.15,8.15,0,0,0,1.55-5,8,8,0,0,0-1.55-5,4.68,4.68,0,0,0-3.75-2.13,4.62,4.62,0,0,0-3.81,2.13,8,8,0,0,0-1.62,5A8.19,8.19,0,0,0,144.66,173.29Z" fill="#cca690"/><path d="M196,163.15a5.84,5.84,0,0,0-4.46-1.81,6,6,0,0,0-4.46,1.81,6.15,6.15,0,0,0-1.87,4.59,5.91,5.91,0,0,0,1.87,4.52,6.1,6.1,0,0,0,4.46,1.87,6.4,6.4,0,0,0,6.34-6.39A6.16,6.16,0,0,0,196,163.15Z" fill="#cca690"/><path d="M117.77,173.49a5.63,5.63,0,0,0,8.14,0,5.31,5.31,0,0,0,1.68-4.08,5.52,5.52,0,0,0-1.68-4.13,5.77,5.77,0,0,0-8.14,0,5.56,5.56,0,0,0-1.68,4.13A5.35,5.35,0,0,0,117.77,173.49Z" fill="#cca690"/><path d="M232.82,124.49a3.87,3.87,0,0,0,2.91,1.23,3.74,3.74,0,0,0,2.85-1.23,3.7,3.7,0,0,0,1.22-2.84,3.86,3.86,0,0,0-1.22-2.91,3.9,3.9,0,0,0-2.85-1.16,4,4,0,0,0-2.91,1.16,4.08,4.08,0,0,0-1.16,2.91A3.9,3.9,0,0,0,232.82,124.49Z" fill="#726056"/><path d="M198.82,175.1a6.63,6.63,0,0,0-6.65,6.73,6.48,6.48,0,0,0,1.94,4.72,6.58,6.58,0,0,0,4.71,1.94,6.49,6.49,0,0,0,4.72-1.94,6.8,6.8,0,0,0,0-9.51A6.49,6.49,0,0,0,198.82,175.1Z" fill="#cca690"/><path d="M131.08,200.57a4.29,4.29,0,0,0,3.56,2,4.23,4.23,0,0,0,3.62-2,8.32,8.32,0,0,0,0-9.5,4.22,4.22,0,0,0-3.62-2,4.28,4.28,0,0,0-3.56,2,8.05,8.05,0,0,0,0,9.5Z" fill="#cca690"/><path d="M203,202.64a5.13,5.13,0,0,0,4.2,2.46,5,5,0,0,0,4.2-2.46,10.1,10.1,0,0,0,1.81-5.88,9.79,9.79,0,0,0-1.81-5.88,4.9,4.9,0,0,0-4.2-2.39,5,5,0,0,0-4.2,2.39,10.18,10.18,0,0,0-1.75,5.88A10.36,10.36,0,0,0,203,202.64Z" fill="#cca690"/><path d="M170.58,191.91a9.65,9.65,0,0,0-5.63-1.68,9.12,9.12,0,0,0-5.55,1.68,4.71,4.71,0,0,0,0,8.21A9.12,9.12,0,0,0,165,201.8a9.65,9.65,0,0,0,5.63-1.68,4.86,4.86,0,0,0,0-8.21Z" fill="#cca690"/><path d="M175.88,201.93a5.78,5.78,0,0,0,8.27,0,5.56,5.56,0,0,0,1.68-4.07,5.8,5.8,0,0,0-1.68-4.14,5.93,5.93,0,0,0-8.27,0,5.8,5.8,0,0,0-1.68,4.14A5.56,5.56,0,0,0,175.88,201.93Z" fill="#cca690"/><path d="M127.14,202.7a5.1,5.1,0,0,0-4.2,2.27,8.47,8.47,0,0,0-1.74,5.36,8.77,8.77,0,0,0,1.74,5.5,5,5,0,0,0,8.4,0,8.72,8.72,0,0,0,1.75-5.5,8.42,8.42,0,0,0-1.75-5.36A5.09,5.09,0,0,0,127.14,202.7Z" fill="#cca690"/><path d="M167,205.74a6,6,0,0,0-1.87,4.53,6.16,6.16,0,0,0,1.87,4.59,6.56,6.56,0,0,0,4.59,1.87,6.29,6.29,0,0,0,4.53-1.87,6.4,6.4,0,0,0,1.87-4.59,6.25,6.25,0,0,0-1.87-4.53,6,6,0,0,0-4.53-1.87A6.27,6.27,0,0,0,167,205.74Z" fill="#cca690"/><path d="M141,220.54a6.56,6.56,0,0,0-9.17,0,6.47,6.47,0,0,0,0,9.12,6.56,6.56,0,0,0,9.17,0,6.47,6.47,0,0,0,0-9.12Z" fill="#cca690"/><path d="M180.92,72.78a7.21,7.21,0,0,0,12.28-5.17,7.2,7.2,0,0,0-2.13-5.17,7.26,7.26,0,0,0-10.15,0,7.45,7.45,0,0,0-2.13,5.17A7.33,7.33,0,0,0,180.92,72.78Z" fill="#9e8680"/><path d="M193.52,105.36a3.28,3.28,0,0,0,2.72,1.68,3.34,3.34,0,0,0,2.71-1.68A8,8,0,0,0,199,97a3.42,3.42,0,0,0-2.71-1.74A3.35,3.35,0,0,0,193.52,97a8.52,8.52,0,0,0,0,8.34Z" fill="#9e8680"/><path d="M172.07,174.13a6.77,6.77,0,0,0,4.78,2,6.84,6.84,0,0,0,4.85-2,6.57,6.57,0,0,0,1.94-4.84,6.78,6.78,0,0,0-1.94-4.79,6.63,6.63,0,0,0-4.85-2,6.56,6.56,0,0,0-4.78,2,6.81,6.81,0,0,0-2,4.79A6.59,6.59,0,0,0,172.07,174.13Z" fill="#9e8680"/><path d="M166.83,234.44a5.47,5.47,0,0,0,3.88,9.31,5,5,0,0,0,3.81-1.62,5.46,5.46,0,0,0-3.81-9.3A5.55,5.55,0,0,0,166.83,234.44Z" fill="#9e8680"/><path d="M166.51,250.86a3.54,3.54,0,0,0-2.91-1.94,3.3,3.3,0,0,0-2.85,1.94,8.18,8.18,0,0,0-1.22,4.65,8,8,0,0,0,1.22,4.59A3.3,3.3,0,0,0,163.6,262a3.54,3.54,0,0,0,2.91-1.94,9.78,9.78,0,0,0,0-9.24Z" fill="#9e8680"/><path d="M171.74,257.06a6.7,6.7,0,0,0,9.31,0,6.54,6.54,0,0,0,0-9.3,6.7,6.7,0,0,0-9.31,0,6.54,6.54,0,0,0,0,9.3Z" fill="#9e8680"/><path d="M122.68,267.73a8.6,8.6,0,0,0,1.17,4.59,3.3,3.3,0,0,0,2.71,1.87,3.48,3.48,0,0,0,2.84-1.87,9.17,9.17,0,0,0,1.1-4.59,8.87,8.87,0,0,0-1.1-4.52,3.35,3.35,0,0,0-2.84-1.88,3.17,3.17,0,0,0-2.71,1.88A8.33,8.33,0,0,0,122.68,267.73Z" fill="#6a6264"/><path d="M163.92,33.94a9.22,9.22,0,0,0,9.83,0,4,4,0,0,0,2-3.43,4.1,4.1,0,0,0-2-3.43,8.35,8.35,0,0,0-4.92-1.48,8.19,8.19,0,0,0-4.91,1.48,4.16,4.16,0,0,0-2.07,3.43A4.08,4.08,0,0,0,163.92,33.94Z" fill="#6a6264"/><path d="M149.44,46.67a5.27,5.27,0,0,0,9-3.69,5.25,5.25,0,0,0-9-3.61A4.77,4.77,0,0,0,147.89,43,5.06,5.06,0,0,0,149.44,46.67Z" fill="#6a6264"/><path d="M177.17,45.18a6.27,6.27,0,0,0,4.66,1.94,6.48,6.48,0,0,0,4.71-1.94,6.63,6.63,0,0,0,0-9.37,6.48,6.48,0,0,0-4.71-1.94,6.27,6.27,0,0,0-4.66,1.94,6.63,6.63,0,0,0,0,9.37Z" fill="#6a6264"/><path d="M172.32,59.08a5.45,5.45,0,0,0,3.88,1.62,5.76,5.76,0,0,0,4-1.62,5.65,5.65,0,0,0,1.55-3.94,5.28,5.28,0,0,0-1.55-3.88,5.52,5.52,0,0,0-4-1.68,5.24,5.24,0,0,0-3.88,1.68,5.07,5.07,0,0,0-1.61,3.88A5.41,5.41,0,0,0,172.32,59.08Z" fill="#6a6264"/><path d="M107.43,77a6.32,6.32,0,0,0-4.78,2,6.68,6.68,0,0,0-2,4.78,6.77,6.77,0,0,0,2,4.78,6.32,6.32,0,0,0,4.78,2,6.4,6.4,0,0,0,4.85-2,6.56,6.56,0,0,0,2-4.78,6.48,6.48,0,0,0-2-4.78A6.4,6.4,0,0,0,107.43,77Z" fill="#6a6264"/><path d="M210.59,83.77a6.95,6.95,0,0,0,6.85,6.92,6.86,6.86,0,0,0,4.85-11.77,6.47,6.47,0,0,0-4.85-2.07,6.95,6.95,0,0,0-6.85,6.92Z" fill="#6a6264"/><path d="M102.26,102.52a5.93,5.93,0,0,0,8.53,0,5.65,5.65,0,0,0,1.81-4.21,5.86,5.86,0,0,0-1.81-4.2,6.1,6.1,0,0,0-8.53,0,5.76,5.76,0,0,0-1.75,4.2A5.56,5.56,0,0,0,102.26,102.52Z" fill="#6a6264"/><path d="M242,109.11a5.66,5.66,0,0,0-3.42-1,5.72,5.72,0,0,0-3.49,1,2.94,2.94,0,0,0-1.43,2.46,3.08,3.08,0,0,0,1.43,2.52,5.72,5.72,0,0,0,3.49,1,5.65,5.65,0,0,0,3.42-1,3.22,3.22,0,0,0,1.42-2.52A3.08,3.08,0,0,0,242,109.11Z" fill="#6a6264"/><path d="M224.87,131.28a2.77,2.77,0,0,0,5,0,6.39,6.39,0,0,0,1-3.75,6.72,6.72,0,0,0-1-3.81,2.83,2.83,0,0,0-5,0,6.74,6.74,0,0,0-1.09,3.81A6.41,6.41,0,0,0,224.87,131.28Z" fill="#6a6264"/><path d="M39.82,235.15a6.12,6.12,0,0,0-4.59,1.94,6.61,6.61,0,0,0-1.94,4.78,6.33,6.33,0,0,0,1.94,4.66,6.12,6.12,0,0,0,4.59,1.94,6.25,6.25,0,0,0,4.65-1.94,6.37,6.37,0,0,0,1.94-4.66,6.66,6.66,0,0,0-1.94-4.78A6.25,6.25,0,0,0,39.82,235.15Z" fill="#6a6264"/><path d="M14.48,259a6.46,6.46,0,0,0,4.72,1.94A6.48,6.48,0,0,0,23.92,259a6.58,6.58,0,0,0,0-9.31,6.51,6.51,0,0,0-4.72-1.93,6.49,6.49,0,0,0-4.72,1.93,6.55,6.55,0,0,0,0,9.31Z" fill="#6a6264"/><path d="M29.28,255.32A5.46,5.46,0,0,0,31,259.39a5.61,5.61,0,0,0,8.14,0,5.61,5.61,0,0,0,0-8.14,5.61,5.61,0,0,0-8.14,0A5.46,5.46,0,0,0,29.28,255.32Z" fill="#6a6264"/><path d="M19.58,267.28a6.09,6.09,0,0,0,6.15,6.14,6.11,6.11,0,1,0,0-12.22,6.09,6.09,0,0,0-6.15,6.08Z" fill="#6a6264"/><path d="M218.6,257.32a4.75,4.75,0,0,0,3.24,1.36,4.49,4.49,0,0,0,3.23-1.36,4.69,4.69,0,0,0,1.42-3.36,4.52,4.52,0,0,0-1.42-3.23,4.23,4.23,0,0,0-3.23-1.36,4.63,4.63,0,0,0-4.59,4.59A4.63,4.63,0,0,0,218.6,257.32Z" fill="#9e8680"/><path d="M206.32,263.59a9.81,9.81,0,0,0,9.51,0,3.4,3.4,0,0,0,2.06-2.9,3.58,3.58,0,0,0-2.06-3,9.81,9.81,0,0,0-9.51,0,3.51,3.51,0,0,0-2,3A3.33,3.33,0,0,0,206.32,263.59Z" fill="#9e8680"/><path d="M202.57,108.79a5.85,5.85,0,0,0,0,8.46,5.21,5.21,0,0,0,4.14,1.75,5.42,5.42,0,0,0,4.2-1.75,6,6,0,0,0,0-8.46,5.63,5.63,0,0,0-4.2-1.75A5.41,5.41,0,0,0,202.57,108.79Z" fill="#6a6264"/><path d="M164.18,46.15a5.32,5.32,0,0,0,7.24,0,4.94,4.94,0,0,0,1.49-3.62A4.7,4.7,0,0,0,171.42,39a5.14,5.14,0,0,0-7.24,0,4.7,4.7,0,0,0-1.49,3.55A4.94,4.94,0,0,0,164.18,46.15Z" fill="#9e8680"/><path d="M149.57,34.45a5,5,0,0,0,3.56,1.49,5.1,5.1,0,0,0,3.62-1.49,4.93,4.93,0,0,0,1.48-3.55,4.57,4.57,0,0,0-1.48-3.49,5.1,5.1,0,0,0-3.62-1.49,5,5,0,0,0-3.56,1.49,4.38,4.38,0,0,0-1.49,3.49A4.8,4.8,0,0,0,149.57,34.45Z" fill="#645c5a"/><path d="M144.92,194.49a6,6,0,0,0,3.49,1,6.18,6.18,0,0,0,3.55-1,2.41,2.41,0,0,0,0-4.39,6.18,6.18,0,0,0-3.55-1,6,6,0,0,0-3.49,1,2.36,2.36,0,0,0,0,4.39Z" fill="#edc1a3"/><path d="M120.55,63.41A3,3,0,0,0,123.07,65a3.05,3.05,0,0,0,2.52-1.55,7.45,7.45,0,0,0,0-7.56,3,3,0,0,0-2.52-1.55,3,3,0,0,0-2.52,1.55,7.39,7.39,0,0,0,0,7.56Z" fill="#6a6264"/><path d="M115.25,50.16Q114.08,48,112.34,48c-1.23,0-2.13.71-3,2.13a10.16,10.16,0,0,0-1.23,5,10.41,10.41,0,0,0,1.23,5.11c.84,1.36,1.74,2.07,3,2.07a3.42,3.42,0,0,0,2.91-2.07,9.8,9.8,0,0,0,1.23-5.11A9.56,9.56,0,0,0,115.25,50.16Z" fill="#6c6262"/><path d="M101.42,74a2.93,2.93,0,0,0,2.52,1.48A3,3,0,0,0,106.46,74a7.58,7.58,0,0,0,0-7.63,3,3,0,0,0-2.52-1.49,2.94,2.94,0,0,0-2.52,1.49,7.52,7.52,0,0,0,0,7.63Z" fill="#6a6264"/><path d="M186.29,19.72a12.52,12.52,0,0,0-1.36,6.07,12.27,12.27,0,0,0,1.36,6c.9,1.75,2,2.52,3.23,2.52s2.39-.77,3.36-2.52a12.39,12.39,0,0,0,1.29-6,12.63,12.63,0,0,0-1.29-6.07c-1-1.69-2.07-2.53-3.36-2.53S187.19,18,186.29,19.72Z" fill="#6a6264"/><path d="M208.39,34.26a8.87,8.87,0,0,0-1.61,5.23,8.69,8.69,0,0,0,1.61,5.18,4.52,4.52,0,0,0,3.75,2.13A4.78,4.78,0,0,0,216,44.67a9.06,9.06,0,0,0,1.49-5.18A9.24,9.24,0,0,0,216,34.26a4.68,4.68,0,0,0-3.81-2.2A4.43,4.43,0,0,0,208.39,34.26Z" fill="#6a6264"/><path d="M206.26,23A10.77,10.77,0,0,0,205,17.39c-.84-1.49-1.88-2.26-3.11-2.26s-2.26.77-3.16,2.26A11.4,11.4,0,0,0,197.4,23a11.42,11.42,0,0,0,1.3,5.56c.9,1.48,1.94,2.26,3.16,2.26s2.27-.78,3.11-2.26A10.79,10.79,0,0,0,206.26,23Z" fill="#4a3c38"/><path d="M225.46,44.79a7.31,7.31,0,0,0,1-3.81,7,7,0,0,0-1-3.75,2.88,2.88,0,0,0-5.11,0,6.88,6.88,0,0,0-1,3.75,7.22,7.22,0,0,0,1,3.81,2.94,2.94,0,0,0,5.11,0Z" fill="#6a6264"/><path d="M175.23,19a4.55,4.55,0,0,0-1.42,3.37,4.29,4.29,0,0,0,1.42,3.29,4.29,4.29,0,0,0,3.24,1.42,4.51,4.51,0,0,0,3.29-1.42,4.45,4.45,0,0,0,1.36-3.29A4.73,4.73,0,0,0,181.76,19a4.48,4.48,0,0,0-3.29-1.35A4.26,4.26,0,0,0,175.23,19Z" fill="#6a6264"/><path d="M159.27,23.33A3.12,3.12,0,0,0,161.79,25a3,3,0,0,0,2.52-1.62,6.16,6.16,0,0,0,1-3.68,6.58,6.58,0,0,0-1-3.81,2.9,2.9,0,0,0-2.52-1.56,3,3,0,0,0-2.52,1.56,6.59,6.59,0,0,0-1,3.81A6.17,6.17,0,0,0,159.27,23.33Z" fill="#6a6264"/><path d="M177.3,8.79a12.38,12.38,0,0,0-1.42-6.2C175,.91,173.81,0,172.52,0s-2.46.91-3.36,2.59a12.38,12.38,0,0,0-1.36,6.2,12.63,12.63,0,0,0,1.36,6.27c.9,1.68,2.06,2.59,3.36,2.59s2.45-.91,3.36-2.59A12.63,12.63,0,0,0,177.3,8.79Z" fill="#4a3c38"/><path d="M133.48,30.38a5.66,5.66,0,0,0,4.07,1.68,5.72,5.72,0,0,0,4.14-1.68,5.78,5.78,0,0,0,0-8.27,5.45,5.45,0,0,0-4.14-1.68,5.39,5.39,0,0,0-4.07,1.68,5.76,5.76,0,0,0,0,8.27Z" fill="#6a6264"/><path d="M120.55,33.81a2.9,2.9,0,0,0,2.52,1.48,3,3,0,0,0,2.52-1.48,7.28,7.28,0,0,0,1-3.82,6.91,6.91,0,0,0-1-3.75,3.05,3.05,0,0,0-2.52-1.55,3,3,0,0,0-2.52,1.55,6.46,6.46,0,0,0-1.1,3.75A6.81,6.81,0,0,0,120.55,33.81Z" fill="#6a6264"/><path d="M114.67,36a12,12,0,0,0-1.17-5.5c-.84-1.49-1.81-2.33-2.9-2.33s-2.14.84-3,2.33a11.31,11.31,0,0,0-1.16,5.5,11.67,11.67,0,0,0,1.16,5.62c.84,1.48,1.75,2.26,3,2.26s2.06-.78,2.9-2.26A12.41,12.41,0,0,0,114.67,36Z" fill="#4a3c38"/><path d="M237.93,51.78a11.15,11.15,0,0,0-1.23-5.5C235.93,44.79,235,44,233.86,44s-2.2.77-3,2.26a11,11,0,0,0-1.17,5.5,11.1,11.1,0,0,0,1.17,5.55c.77,1.56,1.74,2.33,3,2.33s2.07-.77,2.84-2.33A11.2,11.2,0,0,0,237.93,51.78Z" fill="#4a3c38"/><path d="M238.64,74a3,3,0,0,0,2.52,1.48A3.11,3.11,0,0,0,243.68,74a7.52,7.52,0,0,0,0-7.63,3.12,3.12,0,0,0-2.52-1.49,3,3,0,0,0-2.52,1.49,7.58,7.58,0,0,0,0,7.63Z" fill="#6a6264"/><path d="M179.76,14.8a2.29,2.29,0,0,0,2,1.17,2.45,2.45,0,0,0,2-1.17,5.89,5.89,0,0,0,.84-3,5.72,5.72,0,0,0-.84-3,2.52,2.52,0,0,0-2-1.23,2.35,2.35,0,0,0-2,1.23,5.23,5.23,0,0,0-.84,3A5.37,5.37,0,0,0,179.76,14.8Z" fill="#6a6264"/><path d="M159.79,9.24a2.42,2.42,0,0,0,2,1.23,2.36,2.36,0,0,0,2-1.23,5.57,5.57,0,0,0,.84-3,5.52,5.52,0,0,0-.84-3,2.31,2.31,0,0,0-2-1.29,2.37,2.37,0,0,0-2,1.29,5,5,0,0,0-.91,3A5.06,5.06,0,0,0,159.79,9.24Z" fill="#6a6264"/><path d="M209.36,29.35a2.56,2.56,0,0,0,2.07,1.22,2.37,2.37,0,0,0,1.94-1.22,5.11,5.11,0,0,0,.84-3,5.07,5.07,0,0,0-.84-3A2.3,2.3,0,0,0,211.43,22a2.48,2.48,0,0,0-2.07,1.29,5.81,5.81,0,0,0,0,6Z" fill="#6a6264"/><path d="M100.9,52.42a2.32,2.32,0,0,0,2,1.23,2.26,2.26,0,0,0,2-1.23,5.14,5.14,0,0,0,.9-3,5.4,5.4,0,0,0-.9-3,2.31,2.31,0,0,0-2-1.17,2.38,2.38,0,0,0-2,1.17,5.36,5.36,0,0,0-.84,3A5.11,5.11,0,0,0,100.9,52.42Z" fill="#6a6264"/><path d="M224.68,25.15a11.22,11.22,0,0,0-1.16-5.56c-.78-1.56-1.75-2.33-2.91-2.33s-2.14.77-2.91,2.33a11.21,11.21,0,0,0-1.23,5.56,11.14,11.14,0,0,0,1.23,5.49c.77,1.55,1.74,2.33,2.91,2.33s2.13-.78,2.91-2.33A11.14,11.14,0,0,0,224.68,25.15Z" fill="#4a3c38"/><path d="M131.54,14.22a11.62,11.62,0,0,0-1.17-5.49c-.84-1.55-1.81-2.33-2.9-2.33s-2.2.78-3,2.33a10.94,10.94,0,0,0-1.16,5.49,11.25,11.25,0,0,0,1.16,5.56c.78,1.49,1.75,2.26,3,2.26s2.06-.77,2.9-2.26A12,12,0,0,0,131.54,14.22Z" fill="#4a3c38"/><path d="M116.48,22.49a2,2,0,0,0,1.74,1.1,2.26,2.26,0,0,0,1.88-1.1,5.12,5.12,0,0,0,.71-2.71,5.12,5.12,0,0,0-.71-2.71,2.24,2.24,0,0,0-1.88-1.1,2,2,0,0,0-1.74,1.1,4.23,4.23,0,0,0-.84,2.71A4.23,4.23,0,0,0,116.48,22.49Z" fill="#6a6264"/><path d="M155,16.61a9.4,9.4,0,0,0-1.62-5.56,4.53,4.53,0,0,0-3.81-2.26,4.7,4.7,0,0,0-3.81,2.26,9.36,9.36,0,0,0-1.55,5.56,9.21,9.21,0,0,0,1.55,5.56,4.76,4.76,0,0,0,3.81,2.33,4.59,4.59,0,0,0,3.81-2.33A9.25,9.25,0,0,0,155,16.61Z" fill="#4a3c38"/><path d="M135.93,15.71a2.39,2.39,0,0,0,2,1.23A2.42,2.42,0,0,0,140,15.71a5.65,5.65,0,0,0,.77-3,5.56,5.56,0,0,0-.77-3,2.25,2.25,0,0,0-4.08,0,5,5,0,0,0-.84,3A5.11,5.11,0,0,0,135.93,15.71Z" fill="#6a6264"/><path d="M227.65,35.29a2.42,2.42,0,0,0,2.07,1.23,2.22,2.22,0,0,0,1.94-1.23,5.28,5.28,0,0,0,.91-3,5.08,5.08,0,0,0-.91-3,2.22,2.22,0,0,0-1.94-1.23,2.42,2.42,0,0,0-2.07,1.23,5.59,5.59,0,0,0-.84,3A5.82,5.82,0,0,0,227.65,35.29Z" fill="#6a6264"/><path d="M217.89,13a11.19,11.19,0,0,0-1.23-5.49c-.77-1.49-1.74-2.33-2.84-2.33s-2.2.84-3,2.33A11.29,11.29,0,0,0,209.68,13a11.22,11.22,0,0,0,1.17,5.56c.77,1.55,1.74,2.33,3,2.33s2.07-.78,2.84-2.33A11.1,11.1,0,0,0,217.89,13Z" fill="#4a3c38"/><path d="M191.26,12.93a5.76,5.76,0,0,0,.84,3,2.42,2.42,0,0,0,2.07,1.23,2.22,2.22,0,0,0,1.94-1.23,5.21,5.21,0,0,0,.9-3,5,5,0,0,0-.9-3,2.22,2.22,0,0,0-1.94-1.23,2.42,2.42,0,0,0-2.07,1.23A5.51,5.51,0,0,0,191.26,12.93Z" fill="#6a6264"/><path d="M244.46,232.76a4.42,4.42,0,0,0,3.23,1.36,4.23,4.23,0,0,0,3.23-1.36,4.53,4.53,0,0,0,1.42-3.3,4.61,4.61,0,0,0-1.42-3.29,4.49,4.49,0,0,0-3.23-1.36,4.71,4.71,0,0,0-3.23,1.36,4.55,4.55,0,0,0-1.36,3.29A4.48,4.48,0,0,0,244.46,232.76Z" fill="#df713d"/><path d="M236.31,303.34a4.1,4.1,0,0,0,3.11,1.3,4.43,4.43,0,0,0,4.33-4.27,4.1,4.1,0,0,0-1.29-3,4.22,4.22,0,0,0-3-1.29,4.28,4.28,0,0,0-4.33,4.33A4.15,4.15,0,0,0,236.31,303.34Z" fill="#dc6028"/><path d="M222.74,300.76a3,3,0,0,0,5.3,0,6.58,6.58,0,0,0,1.1-3.75,6.41,6.41,0,0,0-1.1-3.69,3.11,3.11,0,0,0-5.3,0,6,6,0,0,0-1.1,3.69A6.15,6.15,0,0,0,222.74,300.76Z" fill="#d64a08"/><path d="M207.87,305a3.59,3.59,0,0,0,6.08,0,6.62,6.62,0,0,0,1.23-4.07,6.35,6.35,0,0,0-1.23-4.07,3.52,3.52,0,0,0-6.08,0,6.78,6.78,0,0,0-1.22,4.07A7.1,7.1,0,0,0,207.87,305Z" fill="#d64a08"/><path d="M197.6,313.49a3.2,3.2,0,0,0,1.1,2.59,3.44,3.44,0,0,0,5,0,3.23,3.23,0,0,0,1.1-2.59,3.26,3.26,0,0,0-1.1-2.52,3.6,3.6,0,0,0-5,0A3.23,3.23,0,0,0,197.6,313.49Z" fill="#d64a08"/><path d="M226.17,317.44a5.34,5.34,0,0,0,1.1,3.36,3.18,3.18,0,0,0,5.3,0,5.39,5.39,0,0,0,1.09-3.36,5.23,5.23,0,0,0-1.09-3.36,3.17,3.17,0,0,0-5.3,0A5.18,5.18,0,0,0,226.17,317.44Z" fill="#df713d"/><path d="M213.24,313.82a3.4,3.4,0,0,0-1.1,2.58,3.54,3.54,0,0,0,1.1,2.59,3.7,3.7,0,0,0,2.59,1.16,3.6,3.6,0,0,0,2.64-1.16,3.73,3.73,0,0,0,0-5.17,3.51,3.51,0,0,0-2.64-1.1A3.6,3.6,0,0,0,213.24,313.82Z" fill="#d64a08"/><path d="M107.49,300.31a5.42,5.42,0,0,0,4,1.61,5.53,5.53,0,0,0,4-1.61,5.69,5.69,0,0,0,0-7.95,5.8,5.8,0,0,0-4-1.62,5.68,5.68,0,0,0-4,1.62,5.71,5.71,0,0,0,0,7.95Z" fill="#d64a08"/><path d="M123.33,299.92a4.75,4.75,0,0,0,3.42,1.49,4.66,4.66,0,0,0,3.43-1.49,5,5,0,0,0,1.42-3.43,5,5,0,0,0-1.42-3.49,4.59,4.59,0,0,0-3.43-1.42,4.68,4.68,0,0,0-3.42,1.42,4.93,4.93,0,0,0-1.36,3.49A4.87,4.87,0,0,0,123.33,299.92Z" fill="#d64a08"/><path d="M81.64,301.86a6.31,6.31,0,0,0,8.85,0,6.15,6.15,0,0,0,1.81-4.4A6.41,6.41,0,0,0,90.49,293a6.31,6.31,0,0,0-8.85,0,6.41,6.41,0,0,0-1.81,4.46A6.15,6.15,0,0,0,81.64,301.86Z" fill="#d64a08"/><path d="M103.23,317.31a4.1,4.1,0,0,0,1.22,3,4,4,0,0,0,3,1.23,3.9,3.9,0,0,0,3-1.23,4.11,4.11,0,0,0,1.23-3,4,4,0,0,0-1.23-3,3.9,3.9,0,0,0-3-1.23,4.18,4.18,0,0,0-4.2,4.27Z" fill="#d64a08"/><path d="M120,314.53a3.24,3.24,0,0,0,2.39,1,3.4,3.4,0,0,0,2.46-1,3.49,3.49,0,0,0,1-2.4,3.7,3.7,0,0,0-1-2.52,3.39,3.39,0,0,0-2.46-1,3.23,3.23,0,0,0-2.39,1,3.74,3.74,0,0,0-1,2.52A3.53,3.53,0,0,0,120,314.53Z" fill="#d64a08"/><path d="M65.61,300.31a5.63,5.63,0,0,0,7.88,0,5.69,5.69,0,0,0,0-7.95,5.6,5.6,0,0,0-7.88,0,5.54,5.54,0,0,0,0,7.95Z" fill="#d64a08"/><path d="M140.13,300.31a5.42,5.42,0,0,0,4,1.61,5.53,5.53,0,0,0,4-1.61,5.69,5.69,0,0,0,0-7.95,5.8,5.8,0,0,0-4-1.62,5.68,5.68,0,0,0-4,1.62,5.54,5.54,0,0,0,0,7.95Z" fill="#d64a08"/><path d="M156,299.92a4.76,4.76,0,0,0,3.43,1.49,4.65,4.65,0,0,0,3.42-1.49,4.93,4.93,0,0,0,1.42-3.43,5,5,0,0,0-1.42-3.49,4.58,4.58,0,0,0-3.42-1.42A4.68,4.68,0,0,0,156,293a5,5,0,0,0-1.36,3.49A4.92,4.92,0,0,0,156,299.92Z" fill="#d64a08"/><path d="M132.12,309.61a5.82,5.82,0,0,0,1.81,4.27,5.86,5.86,0,0,0,8.47,0,6,6,0,0,0,1.74-4.27,5.79,5.79,0,0,0-1.74-4.26,6,6,0,0,0-10.28,4.26Z" fill="#d64a08"/><path d="M151.38,315.37a5.52,5.52,0,0,0,4,1.68,5.84,5.84,0,0,0,4.14-1.68,5.74,5.74,0,0,0,1.61-4.07,5.62,5.62,0,0,0-5.75-5.76,5.74,5.74,0,0,0-5.69,5.76A5.52,5.52,0,0,0,151.38,315.37Z" fill="#d64a08"/><path d="M168.64,292.48a8.79,8.79,0,0,0-1.49,5,8.51,8.51,0,0,0,1.49,5,4.2,4.2,0,0,0,3.55,2.07,4.12,4.12,0,0,0,3.56-2.07,8.11,8.11,0,0,0,1.49-5,8.37,8.37,0,0,0-1.49-5,4.28,4.28,0,0,0-3.56-2.06A4.46,4.46,0,0,0,168.64,292.48Z" fill="#766a68"/><path d="M194.37,302.76a3.83,3.83,0,0,0,6.59,0,8.23,8.23,0,0,0,0-9.24,3.84,3.84,0,0,0-6.59,0,8.53,8.53,0,0,0,0,9.24Z" fill="#d64a08"/><path d="M179.82,305.09a4.79,4.79,0,0,0,3.82,2.13,4.53,4.53,0,0,0,3.75-2.13A8.08,8.08,0,0,0,189,300a7.94,7.94,0,0,0-1.61-5.1,4.52,4.52,0,0,0-3.75-2.14,4.78,4.78,0,0,0-3.82,2.14,8.23,8.23,0,0,0-1.48,5.1A8.38,8.38,0,0,0,179.82,305.09Z" fill="#d64a08"/><path d="M166.05,314.46a4.85,4.85,0,1,0,9.7,0,4.45,4.45,0,0,0-1.42-3.36,4.84,4.84,0,0,0-6.85,0A4.46,4.46,0,0,0,166.05,314.46Z" fill="#d64a08"/><path d="M183.64,311.1a5,5,0,0,0-1.49,3.68,5.21,5.21,0,0,0,5.24,5.31,5.33,5.33,0,0,0,5.3-5.31,4.91,4.91,0,0,0-1.56-3.68,4.82,4.82,0,0,0-3.74-1.55A5,5,0,0,0,183.64,311.1Z" fill="#d64a08"/><path d="M134.71,328.29a4.67,4.67,0,0,0,3.42,1.43,4.51,4.51,0,0,0,3.43-1.43A5,5,0,0,0,143,324.8a5.14,5.14,0,0,0-1.42-3.49,4.71,4.71,0,0,0-3.43-1.35,4.88,4.88,0,0,0-3.42,1.35,5.1,5.1,0,0,0-1.43,3.49A5,5,0,0,0,134.71,328.29Z" fill="#d64a08"/><path d="M192.69,333a4.06,4.06,0,0,0,2.9,1.23,3.9,3.9,0,0,0,2.78-1.23,3.83,3.83,0,0,0,1.23-2.84,4,4,0,0,0-1.23-2.85,3.6,3.6,0,0,0-2.78-1.16,3.77,3.77,0,0,0-2.9,1.16,3.85,3.85,0,0,0-1.1,2.85A3.72,3.72,0,0,0,192.69,333Z" fill="#d64a08"/><path d="M163.47,342.84a4,4,0,0,0,2.84,1.23,4.12,4.12,0,0,0,2.85-1.23,4.07,4.07,0,0,0,0-5.69,3.84,3.84,0,0,0-2.85-1.23,3.71,3.71,0,0,0-2.84,1.23,4.07,4.07,0,0,0,0,5.69Z" fill="#d64a08"/><path d="M155.84,327.78a3.44,3.44,0,0,0,2.78,1.16,3.55,3.55,0,0,0,2.84-1.16,3.91,3.91,0,0,0,0-5.69,3.55,3.55,0,0,0-2.84-1.16,3.44,3.44,0,0,0-2.78,1.16,3.91,3.91,0,0,0,0,5.69Z" fill="#d64a08"/><path d="M117.77,331.07a3.85,3.85,0,0,0,2.84,1.23,4,4,0,0,0,2.85-1.23,3.81,3.81,0,0,0,1.16-2.84,3.9,3.9,0,0,0-1.16-2.84,3.74,3.74,0,0,0-2.85-1.23,3.64,3.64,0,0,0-2.84,1.23,3.86,3.86,0,0,0-1.16,2.84A3.77,3.77,0,0,0,117.77,331.07Z" fill="#d64a08"/><path d="M75.76,312.65a3.57,3.57,0,0,0,2.84,1.17,3.65,3.65,0,0,0,2.84-1.17,3.87,3.87,0,0,0,1.17-2.84A3.82,3.82,0,0,0,81.44,307a3.73,3.73,0,0,0-2.84-1.22A3.65,3.65,0,0,0,75.76,307a3.82,3.82,0,0,0-1.17,2.85A3.87,3.87,0,0,0,75.76,312.65Z" fill="#d64a08"/><path d="M244.72,315.43a3.86,3.86,0,0,0,2.91,1.23,3.6,3.6,0,0,0,2.78-1.23,3.72,3.72,0,0,0,1.16-2.84,3.77,3.77,0,0,0-1.16-2.78,3.6,3.6,0,0,0-2.78-1.23,3.86,3.86,0,0,0-2.91,1.23,3.68,3.68,0,0,0-1.1,2.78A3.64,3.64,0,0,0,244.72,315.43Z" fill="#d64a08"/><path d="M58.89,295.07A3.85,3.85,0,0,0,56,293.84a3.71,3.71,0,0,0-2.84,1.23A3.76,3.76,0,0,0,52,297.85a4,4,0,0,0,1.17,2.91A3.9,3.9,0,0,0,56,301.92a4,4,0,0,0,4-4.07A3.78,3.78,0,0,0,58.89,295.07Z" fill="#d64a08"/><path d="M1.42,291.39a4.5,4.5,0,0,0,3.43,1.42,4.68,4.68,0,0,0,3.42-1.42,5.16,5.16,0,0,0,0-7A4.94,4.94,0,0,0,4.85,283a4.73,4.73,0,0,0-3.43,1.43,5,5,0,0,0,0,7Z" fill="#d64a08"/><path d="M40,298a3.64,3.64,0,0,0,2.84,1.23A3.74,3.74,0,0,0,45.7,298a4,4,0,0,0,0-5.62,3.74,3.74,0,0,0-2.85-1.23A3.64,3.64,0,0,0,40,292.36,4,4,0,0,0,40,298Z" fill="#d64a08"/><path d="M250.86,298.69a3.93,3.93,0,0,0,2.84,1.23,4.07,4.07,0,0,0,2.85-1.23,3.81,3.81,0,0,0,1.16-2.84,3.94,3.94,0,0,0-1.16-2.85,3.77,3.77,0,0,0-2.85-1.16,3.65,3.65,0,0,0-2.84,1.16,3.9,3.9,0,0,0-1.16,2.85A3.77,3.77,0,0,0,250.86,298.69Z" fill="#d64a08"/><path d="M175.75,332.5a4,4,0,0,0,2.91,1.22,4.08,4.08,0,0,0,2.84-1.22,4.21,4.21,0,0,0,1.17-2.85,4.17,4.17,0,0,0-1.17-2.84,4.05,4.05,0,0,0-2.84-1.23,4,4,0,0,0-2.91,1.23,4.16,4.16,0,0,0-1.16,2.84A4.2,4.2,0,0,0,175.75,332.5Z" fill="#d64a08"/><path d="M90.88,321.9a3.85,3.85,0,0,0,5.62,0,3.55,3.55,0,0,0,1.23-2.85,4,4,0,0,0-6.85-2.78,3.53,3.53,0,0,0-1.16,2.78A3.49,3.49,0,0,0,90.88,321.9Z" fill="#d64a08"/><path d="M95,308.39a3.93,3.93,0,0,0,5.69,0,3.74,3.74,0,0,0,1.16-2.85,4,4,0,1,0-8,0A3.71,3.71,0,0,0,95,308.39Z" fill="#d64a08"/><path d="M267.08,302.7a4,4,0,0,0,2.85,1.23,4.15,4.15,0,0,0,2.91-1.23,4.07,4.07,0,0,0,1.16-2.85,4.2,4.2,0,0,0-1.16-2.84,4,4,0,0,0-2.91-1.16,3.9,3.9,0,0,0-2.85,1.16,4.2,4.2,0,0,0-1.16,2.84A4.07,4.07,0,0,0,267.08,302.7Z" fill="#d64a08"/><path d="M63.67,311.62a3.87,3.87,0,0,0-2.78-1.17A3.82,3.82,0,0,0,58,311.62a3.74,3.74,0,0,0-1.16,2.84,4,4,0,0,0,4,4.07,3.86,3.86,0,0,0,2.78-1.16,3.81,3.81,0,0,0,1.16-2.91A3.74,3.74,0,0,0,63.67,311.62Z" fill="#d64a08"/><path d="M21.27,301.86a3.62,3.62,0,0,0,2.84,1.23A3.71,3.71,0,0,0,27,301.86a3.76,3.76,0,0,0,1.17-2.78A3.82,3.82,0,0,0,27,296.23,3.7,3.7,0,0,0,24.11,295a3.61,3.61,0,0,0-2.84,1.22,3.82,3.82,0,0,0-1.17,2.85A3.76,3.76,0,0,0,21.27,301.86Z" fill="#d64a08"/><path d="M306.19,291.71a3.9,3.9,0,0,0,2.84,1.16,4,4,0,0,0,4-4.07,3.78,3.78,0,0,0-1.16-2.78,3.84,3.84,0,0,0-2.85-1.23,3.71,3.71,0,0,0-2.84,1.23A3.76,3.76,0,0,0,305,288.8,4,4,0,0,0,306.19,291.71Z" fill="#d64a08"/><path d="M214,335.92a4,4,0,0,0,2.85,1.23,4.05,4.05,0,0,0,2.84-1.23,3.78,3.78,0,0,0,1.17-2.84,3.91,3.91,0,0,0-1.17-2.85,3.74,3.74,0,0,0-2.84-1.16,3.68,3.68,0,0,0-2.85,1.16,3.94,3.94,0,0,0-1.16,2.85A3.81,3.81,0,0,0,214,335.92Z" fill="#d64a08"/></svg>