<svg xmlns="http://www.w3.org/2000/svg" viewBox="0 0 300 300"><path d="M0,21.43V42.86H42.86V0H0V21.43Zm36.73,0v15.3H6.12V6.12H36.73V21.43Z"/><path d="M49,12.24V24.49H55.1v6.12H49V42.86H55.1V49h6.12V55.1H55.1v6.12H49V55.1H42.86V49H24.49V55.1H18.37V67.35h6.12v6.12H12.24V61.22H6.12V55.1h6.12V49H0V61.22H6.12v6.13H0V91.84H6.12V98H0V110.2H6.12v6.13H18.37v6.12h6.12v-6.12H18.37V104.08h6.12v6.12h6.12v12.25h6.12v6.12H30.61v6.12H24.49v-6.12H12.24v6.12H6.12V122.45H0v18.37H12.24v-6.13h6.13v6.13h6.12v6.12H12.24v24.49H6.12V165.3H0v6.13H6.12v6.12H0v12.24H6.12V202H0v18.37H6.12v6.12h6.12v6.12H6.12V244.9H0V251H18.37V244.9h6.12v-6.13H12.24v-6.12h6.13V214.28h6.12v-6.12h6.12v18.37H42.86v6.12H30.61v6.12H42.86v6.13H36.73V251H49v6.12H55.1v6.12H49v12.25H55.1v-6.12h6.12v18.36H49V300H61.22v-6.12h6.13v-6.13h6.12V300h6.12V281.63H73.47v-6.12H85.71v12.24H98v-6.12h18.37v-6.12h12.24v6.12h-6.12v6.12H104.08V300h18.37v-6.12h6.12V300h6.12v-6.12h6.13V281.63h-6.13v-6.12h24.49v6.12h6.12V300h6.13V287.75h6.12v-6.12h6.12v12.25h-6.12V300h6.12v-6.12h6.12v-6.13h6.13V300h30.61v-6.12h6.12V300h6.12v-6.12h6.13V300H251v-6.12H244.9v-6.13h12.24v-6.12h6.12V300h12.25v-6.12h-6.12V281.63h-6.13v-6.12h12.25v6.12h6.12V300H300v-6.12h-6.12v-6.13H300v-6.12H281.63v-6.12h12.25V263.26H281.63v6.13h-6.12V257.14h12.24V244.9h6.13v12.24H300V238.77H287.75v-6.12h-6.12v-6.12h12.25v-6.12H300v-6.13H275.51v-6.12H300V202H269.39v-6.12h6.12V177.55h-6.12v6.12h-6.13v6.12h-6.12V202H251v6.12H244.9V202H232.65V189.79H244.9v6.13H251V171.43h6.12v6.12h6.12v-6.12h18.37v6.12h6.12v6.12h6.13v-6.12h-6.13V165.3h-6.12v-6.12h6.12v-6.12h6.13v6.12H300V146.94h-6.12v-6.12h-6.13v-6.13h6.13v-6.12H300v-6.12h-6.12v-6.12H275.51V104.08h6.12V98h6.12V110.2H300V98h-6.12V91.84H281.63V98H269.39v36.73h-6.13V122.45H251v-6.12H226.53V98h6.12V110.2H244.9v-6.12h-6.13V98H251V91.84h6.12V98h6.12V79.59H251V73.47h6.12V61.22h6.12V73.47h6.13v6.12h6.12v6.12h6.12V79.59h6.12v6.12h6.13V79.59H300V73.47h-6.12V67.35h-6.13V61.22H300V49H275.51V55.1h-6.12V49h-6.13V55.1H251V49H244.9V55.1h-6.13V49h-6.12V55.1h-6.12V36.73h6.12v6.13h6.12V30.61H220.41V55.1h-6.13V49h-6.12V55.1H202V36.73h-6.12V30.61h12.24V42.86h6.12V30.61h-6.12V24.49H195.92V18.37h24.49V12.24h6.12V0H214.28V6.12h-6.12V0H202V6.12h-6.12V0H171.43V12.24h6.12v6.13h-6.12v6.12H165.3V18.37H153.06V12.24h-6.12v6.13h6.12v6.12H134.69V42.86h-6.12V24.49h-6.12V6.12h6.12V0h-6.12V6.12h-6.12v6.12H110.2V0h-6.12V12.24H85.71v6.13H79.59V36.73H73.47V49H61.22V42.86h6.13V36.73H61.22V24.49H55.1V18.37H73.47V6.12H98V0H73.47V6.12H55.1V0H49V12.24Zm146.94,0v6.13H183.67v6.12h-6.12v6.12h12.24v6.12h6.13v6.13h-6.13V55.1h-6.12V67.35h6.12V61.22h6.13V55.1H202v6.12h6.12V55.1h6.12v6.12h6.13V55.1h6.12V73.47h6.12v6.12h-6.12v6.12h6.12v6.13h6.12V85.71h6.13V79.59h-6.13V67.35h6.13V79.59H251V91.84H238.77V98h-6.12V91.84H214.28V85.71h-6.12V79.59h18.37V73.47H202V61.22h-6.12v6.13h-6.13v6.12h6.13v6.12H202V91.84h6.12V98H202V91.84h-6.12v12.24H202v6.12h6.12v-6.12h6.12v12.25h6.13v6.12h-6.13v18.37h6.13V128.57h6.12v-6.12H244.9v6.12H251v6.12H244.9v-6.12H232.65v12.25h-6.12v6.12h6.12v6.12h-6.12v-6.12H214.28v-6.12h-6.12v12.24h12.25v6.12h6.12v6.12h-6.12v-6.12h-6.13v6.12h-6.12v6.13H195.92v6.12H202v12.24h-6.12V177.55h-6.13v-6.12h-6.12v6.12h-6.12v6.12h-6.12v6.12h6.12v6.13h6.12V183.67h6.12v12.25h6.13v12.24H202V202h6.12v-6.12h6.12V183.67h-6.12v-6.12h18.37v-6.12h6.12v18.36h-6.12v-6.12h-6.12v12.25h-6.13v12.24h6.13V202h12.24v6.12h6.12v6.12H226.53v6.13H244.9v-6.13H251v-6.12h18.37v6.12h6.12v6.13h6.12v6.12H269.39v6.12h-6.13v6.12h6.13v6.13H244.9V251H226.53v6.12h-6.12V251h6.12V244.9H214.28v18.36h-6.12v6.13h12.25v6.12h-6.13v6.12h-6.12V269.39H195.92v6.12h-6.13v-6.12h6.13V251h-6.13V244.9h-6.12v-6.13h-6.12V251h-6.12v6.12H165.3V251h6.13V238.77H159.18v6.13h-6.12v-6.13h6.12v-6.12h-6.12v-6.12H140.82v-6.12h12.24v6.12h6.12v6.12h36.74v-6.12h-6.13v-6.12h-6.12v6.12H171.43v-6.12H165.3v-6.13h-6.12v-6.12h-6.12V202H140.82v6.12h6.12v6.12H134.69v6.13H122.45v6.12H110.2v6.12h6.13v6.12h6.12v-6.12h6.12v-6.12h6.12v6.12h6.13v6.12h6.12v6.13H134.69v18.36h-6.12v6.13h6.12v6.12h-6.12v-6.12h-6.12v-6.13h-6.12v6.13H110.2v6.12H91.84v-6.12H85.71v-6.13H79.59v6.13H73.47v6.12H67.35v-6.12H61.22v-6.13H73.47v-6.12h6.12V251H67.35V244.9h6.12v-6.13H61.22V251H55.1V238.77h6.12v-6.12H49V220.41H61.22v-6.13H42.86v6.13H36.73v-6.13h6.13v-6.12H30.61V202H18.37v12.24H6.12v-6.12h6.12V202h6.13V189.79H12.24v-6.12h6.13v-6.12h6.12v6.12h6.12v-6.12H42.86v6.12H30.61v6.12H42.86v6.13H30.61V202H55.1v6.12h6.12v6.12H85.71v6.13h6.13V208.16H98V202H91.84V189.79H85.71v18.37H67.35V195.92H55.1v-6.13H49v-6.12H55.1v-6.12H49V165.3H61.22v6.13h6.13V159.18H61.22v-6.12H55.1v-6.12H67.35v-6.12H61.22v-6.13H55.1v-6.12h6.12v6.12h6.13v6.13h6.12v6.12H67.35v6.12h6.12v6.12h6.12V146.94h6.12v-6.12H79.59v-6.13H73.47v-6.12H67.35v-6.12H61.22v-6.12h6.13V104.08H49v6.12H55.1v6.13H49v12.24H42.86v6.12H36.73v-6.12h6.13v-6.12H36.73v-6.12H49V110.2H36.73v-6.12h6.13V98H30.61V85.71h6.12V79.59H24.49V73.47H36.73V67.35H49v6.12H36.73v6.12h6.13v6.12H36.73v6.13H49V79.59H55.1v6.12h6.12V79.59h6.13V73.47H61.22V67.35H55.1V61.22h6.12V55.1h6.13v6.12h6.12V49H85.71V61.22h6.13v6.13H98V49h6.12V36.73H98v6.13H91.84V36.73H85.71v6.13H79.59V36.73h6.12V30.61h6.13V18.37H98v6.12h6.12V18.37h6.12V55.1h6.13V30.61h6.12V42.86h6.12V49h6.12V55.1h-6.12V49h-6.12V61.22h12.24V73.47H122.45V67.35h-6.12v6.12H110.2v6.12H91.84V73.47H85.71V67.35H79.59V61.22H73.47V73.47h6.12v6.12h6.12v24.49h6.13V91.84H98V85.71h18.37V79.59h12.24v6.12h-6.12v6.13H110.2V98h-6.12V110.2h6.12v-6.12h12.25V98h6.12V91.84h6.12V85.71h6.13V67.35h6.12V61.22h-6.12V55.1h12.24V67.35h6.12V85.71h6.12v6.13h6.13V67.35h6.12V55.1h-6.12v6.12H165.3V55.1h6.13V42.86H165.3V36.73h6.13v6.13h6.12V30.61h-6.12V24.49h6.12V18.37h6.12V12.24h6.12V6.12h6.13v6.12Zm12.24-3.06v3.06H202V6.12h6.12V9.18Zm-49,30.62V49H140.82V30.61h18.36V39.8Zm-98,0v3.06H55.1V36.73h6.12V39.8ZM30.61,61.22v6.13H24.49V55.1h6.12v6.12Zm12.25-3.06v3.06H36.73V55.1h6.13v3.06Zm208.16,0v3.06H244.9V55.1H251v3.06Zm18.37,0v3.06h6.12V55.1h12.24v6.12H275.51v6.13h6.12v6.12h-6.12V67.35h-6.12V61.22h-6.13V55.1h6.13v3.06ZM12.24,76.53v3.06h6.13v6.12h6.12v6.13H18.37V85.71H12.24V79.59H6.12V73.47h6.12v3.06Zm281.64,0v3.06h-6.13V73.47h6.13v3.06ZM18.37,101v3.06H6.12V98H18.37V101Zm269.38,30.61v3.06h-6.12v12.25h6.12v6.12h-6.12v6.12h-6.12V128.57h12.24v3.06ZM49,150v9.18H30.61V140.82H49V150Zm195.92-6.12v3.06h-6.13v-6.12h6.13v3.06ZM269.39,150v9.18H251V140.82h18.37V150ZM24.49,162.24v3.06H18.37v-6.12h6.12v3.06Zm220.41,0v3.06H251v6.13H244.9v12.24h-6.13V171.43h6.13V165.3h-6.13v-6.12h6.13v3.06Zm-202,6.13v3.06H30.61V165.3H42.86v3.07ZM281.63,244.9V251h-6.12V238.77h6.12v6.13ZM159.18,260.2v9.19H140.82V251h18.36v9.18Zm110.21,0v9.19H251V251h18.37v9.18Zm-79.6,0v3.06H177.55v-6.12h12.24v3.06Zm55.11,3.06v6.13h-6.13v6.12h-6.12v12.24h6.12v6.13h-6.12v-6.13h-6.12v6.13h-6.12v-6.13h6.12V275.51h6.12v-6.12h-6.12v-6.13h12.24v-6.12h6.13v6.12Zm-73.47,3.06v3.07h6.12v12.24H165.3v-6.12h6.13v-6.12H165.3v-6.13h6.13v3.06ZM202,284.69v3.06h-6.12v-6.12H202v3.06Z"/><polygon points="146.94 3.06 146.94 6.12 156.12 6.12 165.31 6.12 165.31 3.06 165.31 0 156.12 0 146.94 0 146.94 3.06 146.94 3.06"/><polygon points="244.9 3.06 244.9 6.12 238.77 6.12 232.65 6.12 232.65 9.18 232.65 12.24 235.71 12.24 238.77 12.24 238.77 18.37 238.77 24.49 241.84 24.49 244.9 24.49 244.9 21.43 244.9 18.37 247.96 18.37 251.02 18.37 251.02 9.18 251.02 0 247.96 0 244.9 0 244.9 3.06 244.9 3.06"/><path d="M257.14,21.43V42.86H300V0H257.14V21.43Zm36.74,0v15.3H263.26V6.12h30.62V21.43Z"/><polygon points="134.69 12.24 134.69 18.37 137.75 18.37 140.81 18.37 140.81 12.24 140.81 6.12 137.75 6.12 134.69 6.12 134.69 12.24 134.69 12.24"/><polygon points="226.53 21.43 226.53 24.49 229.59 24.49 232.65 24.49 232.65 21.43 232.65 18.37 229.59 18.37 226.53 18.37 226.53 21.43 226.53 21.43"/><polygon points="67.35 27.55 67.35 30.61 70.41 30.61 73.47 30.61 73.47 27.55 73.47 24.49 70.41 24.49 67.35 24.49 67.35 27.55 67.35 27.55"/><polygon points="244.9 39.8 244.9 42.86 247.96 42.86 251.02 42.86 251.02 39.8 251.02 36.73 247.96 36.73 244.9 36.73 244.9 39.8 244.9 39.8"/><polygon points="251.02 107.14 251.02 110.2 254.08 110.2 257.14 110.2 257.14 113.26 257.14 116.33 260.2 116.33 263.26 116.33 263.26 110.2 263.26 104.08 257.14 104.08 251.02 104.08 251.02 107.14 251.02 107.14"/><polygon points="281.63 192.86 281.63 195.92 287.75 195.92 293.88 195.92 293.88 192.86 293.88 189.79 287.75 189.79 281.63 189.79 281.63 192.86 281.63 192.86"/><path d="M0,278.57V300H42.86V257.14H0v21.43Zm36.73,0v15.31H6.12V263.26H36.73v15.31Z"/><polygon points="153.06 293.88 153.06 300 156.12 300 159.18 300 159.18 293.88 159.18 287.75 156.12 287.75 153.06 287.75 153.06 293.88 153.06 293.88"/><polygon points="85.71 296.94 85.71 300 88.78 300 91.84 300 91.84 296.94 91.84 293.88 88.78 293.88 85.71 293.88 85.71 296.94 85.71 296.94"/><polygon points="12.24 21.43 12.24 30.61 21.43 30.61 30.61 30.61 30.61 21.43 30.61 12.24 21.43 12.24 12.24 12.24 12.24 21.43 12.24 21.43"/><polygon points="91.84 33.67 91.84 36.73 94.9 36.73 97.96 36.73 97.96 33.67 97.96 30.61 94.9 30.61 91.84 30.61 91.84 33.67 91.84 33.67"/><polygon points="183.67 39.8 183.67 42.86 186.73 42.86 189.79 42.86 189.79 39.8 189.79 36.73 186.73 36.73 183.67 36.73 183.67 39.8 183.67 39.8"/><polygon points="104.08 61.22 104.08 67.35 101.02 67.35 97.96 67.35 97.96 70.41 97.96 73.47 101.02 73.47 104.08 73.47 104.08 70.41 104.08 67.35 107.14 67.35 110.2 67.35 110.2 61.22 110.2 55.1 107.14 55.1 104.08 55.1 104.08 61.22 104.08 61.22"/><polygon points="61.22 64.28 61.22 67.35 64.28 67.35 67.35 67.35 67.35 64.28 67.35 61.22 64.28 61.22 61.22 61.22 61.22 64.28 61.22 64.28"/><path d="M146.94,76.53v9.18h-6.12V110.2h-6.13v-6.12H122.45v6.12h6.12v6.13h-6.12v12.24H110.2v-6.12h6.13V110.2H110.2v6.13h-6.12v12.24h6.12v6.12h6.13v6.13H110.2v6.12h-6.12V134.69H98v6.13H91.84V128.57H98V104.08H91.84v6.12H85.71v-6.12H73.47v12.25H85.71v6.12h6.13v6.12H79.59v6.12h6.12v6.13h6.13v6.12H85.71v12.24H98v6.12H110.2v-6.12h6.13v-6.12h6.12v6.12h6.12v6.12h-6.12v6.13H110.2v6.12H91.84v-6.12H85.71V165.3H73.47v18.37H67.35v-6.12H61.22v6.12H55.1v6.12h6.12v-6.12h6.13v6.12h6.12v6.13h6.12V177.55h6.12v6.12h6.13v6.12H98v-6.12h6.12V202h18.37v6.12H110.2v6.12h-6.12v12.25h6.12v-6.12h12.25V208.16h6.12v6.12h6.12V202h6.13V189.79h6.12v-6.12h6.12V202h18.37v6.12H165.3v6.12h6.13v6.13h6.12V208.16h6.12v6.12h6.12v6.13h6.13v6.12H202V244.9h-6.12V251H202v6.12h6.12V238.77h6.12v-6.12h6.13v6.12h6.12v6.13h6.12v-6.13h6.12V226.53h-6.12v12.24h-6.12v-6.12h-6.12v-6.12h6.12v-6.12h-6.12v-6.13H208.16v6.13h6.12v12.24h-6.12v-6.12H202V214.28H189.79V195.92h-6.12V202H171.43V189.79H159.18V177.55h6.12v6.12h6.13V159.18h12.24v6.12h6.12v6.13h6.13V159.18h12.24v-6.12H202v-6.12h-6.12v12.24h-6.13V146.94h-6.12V134.69h6.12v6.13H202v-6.13h6.12V122.45H195.92v6.12H202v6.12H189.79V116.33h6.13V110.2h-6.13v-6.12h-6.12V98h-6.12V110.2h12.24v6.13h-6.12v12.24h-6.12v18.37h6.12v6.12H171.43V110.2H165.3V98h-6.12V85.71h-6.12V67.35h-6.12v9.18Zm6.12,18.37V98h-6.12V91.84h6.12V94.9Zm6.12,12.24v3.06h6.12v18.37h-6.12v6.12h-6.12V122.45h6.12v-6.12H146.94v6.12h-6.12v-6.12h6.12V104.08h12.24v3.06Zm-12.24,24.49v3.06H128.57v6.13h6.12v18.36h-6.12v-6.12h-6.12v-6.12h-6.12v-6.12h6.12v-6.13h6.12v-6.12h18.37v3.06ZM159.18,150v9.18H140.82V140.82h18.36V150Zm-49,6.12v3.06H98v-6.12H110.2v3.06Zm36.74,12.25v3.06h12.24v6.12H146.94v6.12h-6.12v6.12h-6.13v6.13h-6.12V183.67h-6.12v6.12H110.2v-6.12h6.13v-6.12h12.24v-6.12h6.12V165.3h12.25v3.07Z"/><polygon points="177.55 79.59 177.55 91.84 180.61 91.84 183.67 91.84 183.67 88.78 183.67 85.71 186.73 85.71 189.79 85.71 189.79 88.78 189.79 91.84 192.86 91.84 195.92 91.84 195.92 88.78 195.92 85.71 192.86 85.71 189.79 85.71 189.79 79.59 189.79 73.47 186.73 73.47 183.67 73.47 183.67 70.41 183.67 67.35 180.61 67.35 177.55 67.35 177.55 79.59 177.55 79.59"/><polygon points="67.35 82.65 67.35 85.71 70.41 85.71 73.47 85.71 73.47 82.65 73.47 79.59 70.41 79.59 67.35 79.59 67.35 82.65 67.35 82.65"/><polygon points="48.98 94.9 48.98 97.96 52.04 97.96 55.1 97.96 55.1 94.9 55.1 91.84 52.04 91.84 48.98 91.84 48.98 94.9 48.98 94.9"/><polygon points="61.22 94.9 61.22 97.96 67.35 97.96 73.47 97.96 73.47 94.9 73.47 91.84 67.35 91.84 61.22 91.84 61.22 94.9 61.22 94.9"/><polygon points="257.14 217.34 257.14 220.41 251.02 220.41 244.9 220.41 244.9 223.47 244.9 226.53 257.14 226.53 269.39 226.53 269.39 223.47 269.39 220.41 266.32 220.41 263.26 220.41 263.26 217.34 263.26 214.28 260.2 214.28 257.14 214.28 257.14 217.34 257.14 217.34"/><path d="M67.35,223.47v3.06H61.22v6.12h6.13v-6.12h6.12v6.12H85.71V251h6.13v6.12H98v6.12H91.84v6.13H98v-6.13H110.2V251h6.13v6.12h6.12v6.12h6.12V251H116.33V238.77H110.2v-6.12H98v6.12H91.84V226.53H98v-6.12H91.84v6.12H79.59v-6.12H67.35v3.06Zm42.85,18.36v3.07h-6.12v12.24H98V244.9h6.12v-6.13h6.12v3.06Z"/><polygon points="128.57 238.77 128.57 244.9 131.63 244.9 134.69 244.9 134.69 238.77 134.69 232.65 131.63 232.65 128.57 232.65 128.57 238.77 128.57 238.77"/><polygon points="146.94 39.8 146.94 42.86 150 42.86 153.06 42.86 153.06 39.8 153.06 36.73 150 36.73 146.94 36.73 146.94 39.8 146.94 39.8"/><polygon points="36.73 150 36.73 153.06 39.8 153.06 42.86 153.06 42.86 150 42.86 146.94 39.8 146.94 36.73 146.94 36.73 150 36.73 150"/><polygon points="257.14 150 257.14 153.06 260.2 153.06 263.26 153.06 263.26 150 263.26 146.94 260.2 146.94 257.14 146.94 257.14 150 257.14 150"/><polygon points="146.94 260.2 146.94 263.26 150 263.26 153.06 263.26 153.06 260.2 153.06 257.14 150 257.14 146.94 257.14 146.94 260.2 146.94 260.2"/><polygon points="257.14 260.2 257.14 263.26 260.2 263.26 263.26 263.26 263.26 260.2 263.26 257.14 260.2 257.14 257.14 257.14 257.14 260.2 257.14 260.2"/><polygon points="269.39 21.43 269.39 30.61 278.57 30.61 287.75 30.61 287.75 21.43 287.75 12.24 278.57 12.24 269.39 12.24 269.39 21.43 269.39 21.43"/><polygon points="12.24 278.57 12.24 287.75 21.43 287.75 30.61 287.75 30.61 278.57 30.61 269.39 21.43 269.39 12.24 269.39 12.24 278.57 12.24 278.57"/><polygon points="146.94 150 146.94 153.06 150 153.06 153.06 153.06 153.06 150 153.06 146.94 150 146.94 146.94 146.94 146.94 150 146.94 150"/><polygon points="140.81 174.49 140.81 177.55 137.75 177.55 134.69 177.55 134.69 180.61 134.69 183.67 137.75 183.67 140.81 183.67 140.81 180.61 140.81 177.55 143.88 177.55 146.94 177.55 146.94 174.49 146.94 171.43 143.88 171.43 140.81 171.43 140.81 174.49 140.81 174.49"/></svg>